<?xml version="1.0" standalone="no"?>
<!DOCTYPE svg PUBLIC "-//W3C//DTD SVG 20010904//EN"
 "http://www.w3.org/TR/2001/REC-SVG-20010904/DTD/svg10.dtd">
<svg version="1.0" xmlns="http://www.w3.org/2000/svg"
 width="240.000000pt" height="240.000000pt" viewBox="0 0 240.000000 240.000000"
 preserveAspectRatio="xMidYMid meet">
<metadata>
Created by potrace 1.11, written by Peter Selinger 2001-2013
</metadata>
<g transform="translate(0.000000,240.000000) scale(0.100000,-0.100000)"
fill="#000000" stroke="none">
<path d="M1131 2090 c-71 -81 -88 -120 -52 -120 11 0 41 27 72 64 30 36 59 65
64 65 6 0 34 -29 64 -65 53 -64 91 -83 91 -45 0 22 -135 181 -155 181 -7 0
-45 -36 -84 -80z"/>
<path d="M836 2114 c-3 -9 -6 -82 -6 -164 0 -113 3 -150 14 -159 9 -8 118 -11
382 -9 l369 3 0 170 c0 202 -1 202 -96 124 -73 -61 -79 -67 -72 -86 9 -22 32
-15 79 23 l44 36 0 -111 0 -110 -330 0 -330 0 0 104 c0 58 3 105 6 105 4 0 22
-14 41 -31 37 -31 66 -35 71 -8 3 18 -126 129 -151 129 -8 0 -18 -7 -21 -16z"/>
<path d="M785 1718 c-3 -7 -13 -62 -24 -123 -16 -96 -17 -112 -4 -125 13 -13
16 -13 27 2 15 21 50 223 42 244 -7 17 -35 19 -41 2z"/>
<path d="M1604 1716 c-8 -21 27 -223 42 -244 11 -15 14 -15 27 -2 13 13 12 29
-4 125 -11 61 -21 116 -24 123 -6 17 -34 15 -41 -2z"/>
<path d="M935 1480 l-260 -66 -5 -268 c-3 -147 -3 -272 0 -276 3 -4 115 -68
250 -142 135 -74 255 -141 266 -148 17 -11 49 4 279 130 143 78 266 147 273
153 9 7 12 71 10 280 l-3 270 -270 69 c-148 37 -272 67 -275 66 -3 0 -122 -31
-265 -68z m491 -41 c110 -28 216 -55 237 -60 l37 -10 -2 -236 -3 -236 -243
-133 -243 -134 -244 133 -245 132 3 239 2 240 225 57 c124 31 237 58 251 58
15 1 116 -22 225 -50z"/>
<path d="M1185 1428 c-3 -7 -4 -171 -3 -363 3 -342 3 -350 23 -350 20 0 20 7
20 360 0 335 -1 360 -18 363 -9 2 -19 -3 -22 -10z"/>
<path d="M995 1298 c-3 -7 -4 -101 -3 -208 3 -187 4 -195 23 -195 19 0 20 7
20 205 0 187 -2 205 -18 208 -9 2 -19 -3 -22 -10z"/>
<path d="M1375 1298 c-3 -7 -4 -101 -3 -208 3 -187 4 -195 23 -195 19 0 20 7
20 205 0 187 -2 205 -18 208 -9 2 -19 -3 -22 -10z"/>
<path d="M835 1278 c-3 -8 -4 -86 -3 -173 3 -152 4 -160 23 -160 19 0 20 7 20
170 0 154 -2 170 -18 173 -9 2 -19 -3 -22 -10z"/>
<path d="M1540 1271 c-11 -21 -14 -270 -4 -308 4 -13 14 -23 24 -23 25 0 30
27 30 178 0 125 -8 172 -30 172 -5 0 -14 -9 -20 -19z"/>
<path d="M743 753 c-9 -3 -13 -29 -13 -77 l0 -73 -122 -47 c-68 -26 -126 -52
-129 -58 -9 -14 0 -38 14 -38 6 0 75 25 153 56 l142 55 -5 82 c-6 111 -8 114
-40 100z"/>
<path d="M1645 748 c-10 -34 -11 -169 -1 -176 15 -12 268 -112 282 -112 13 0
27 28 20 39 -3 4 -61 30 -130 57 l-126 49 0 71 c0 56 -3 73 -16 78 -22 8 -24
8 -29 -6z"/>
<path d="M1024 475 c-6 -15 155 -209 182 -219 17 -7 194 190 194 216 0 40 -40
17 -112 -67 l-73 -85 -72 78 c-40 42 -73 80 -73 85 0 13 -41 7 -46 -8z"/>
</g>
</svg>
