<?xml version="1.0" encoding="UTF-8"?>
<svg width="33px" height="65px" viewBox="0 0 33 65" version="1.1" xmlns="http://www.w3.org/2000/svg" xmlns:xlink="http://www.w3.org/1999/xlink">
    <!-- Generator: Sketch 58 (84663) - https://sketch.com -->
    <title>Group</title>
    <desc>Created with Sketch.</desc>
    <g id="Page-1" stroke="none" stroke-width="1" fill="none" fill-rule="evenodd">
        <g id="Artboard" transform="translate(-293.000000, -73.000000)">
            <g id="Group" transform="translate(293.445300, 73.381061)">
                <polygon id="Path" fill="#FFF268" points="11.7659 8.70733949 16.9037 7.42113949 16.9037 7.40893949 16.928 7.41503949 16.9523 7.40893949 16.9523 7.42113949 22.0901 8.70733949 22.0901 13.8000395 16.9523 16.6128395 16.9523 16.6393395 16.928 16.6260395 16.9037 16.6393395 16.9037 16.6128395 11.7659 13.8000395"></polygon>
                <polygon id="Path" fill="#FFF268" points="15.6429 36.2678395 18.3535 36.2678395 18.3538 36.2678395 18.3915 61.1791395 18.3915 63.1709395 16.9891 64.6815395 15.6429 63.2416395"></polygon>
                <polygon id="Path" fill="#FFF268" points="18.3915 63.1709395 16.9891 64.6815395 17.0081 64.7058395 18.3915 63.2416395"></polygon>
                <polygon id="Path" fill="#FFF268" points="18.3538 36.2678395 18.4538 36.2678395 18.4538 61.1791395 18.3538 36.2678395"></polygon>
                <polyline id="Path" stroke="#2B2B2A" stroke-width="0.5582" stroke-linecap="round" stroke-linejoin="round" points="13.5353 1.68603949 12.2873 0.665039485 12.2873 3.66013949 15.9632 3.66013949"></polyline>
                <polyline id="Path" stroke="#2B2B2A" stroke-width="0.5582" stroke-linecap="round" stroke-linejoin="round" points="18.1868 1.68603949 19.4348 0.665039485 19.4348 3.66013949 15.7589 3.66013949"></polyline>
                <path d="M14.7226,1.98113949 C14.6221,2.09793949 14.4458,2.11113949 14.329,2.01073949 C14.2122,1.91033949 14.1989,1.73413949 14.2994,1.61733949 L14.7226,1.98113949 Z" id="Path" fill="#2B2B2A" fill-rule="nonzero"></path>
                <polygon id="Path" fill="#2B2B2A" fill-rule="nonzero" points="16.0306 0.460839485 14.7226 1.98113949 14.2994 1.61733949 15.6074 0.0970394853"></polygon>
                <path d="M15.6074,0.0970394853 C15.7079,-0.0197605147 15.8842,-0.0329605147 16.001,0.0674394853 C16.1178,0.167839485 16.1311,0.344039485 16.0306,0.460839485 L15.6074,0.0970394853 Z" id="Path" fill="#2B2B2A" fill-rule="nonzero"></path>
                <path d="M16.9545,1.98113949 L17.3777,1.61733949 C17.4782,1.73413949 17.4649,1.91033949 17.3481,2.01073949 C17.2313,2.11113949 17.055,2.09793949 16.9545,1.98113949 Z" id="Path" fill="#2B2B2A" fill-rule="nonzero"></path>
                <polygon id="Path" fill="#2B2B2A" fill-rule="nonzero" points="15.6465 0.460839485 16.0697 0.0970394853 17.3777 1.61733949 16.9545 1.98113949"></polygon>
                <path d="M16.0697,0.0970394853 L15.6465,0.460839485 C15.546,0.344039485 15.5593,0.167839485 15.6761,0.0674394853 C15.7929,-0.0329605147 15.9692,-0.0197605147 16.0697,0.0970394853 Z" id="Path" fill="#2B2B2A" fill-rule="nonzero"></path>
                <path d="M20.0223,6.89123949 L20.5691,6.79523949 C20.5954,6.94703949 20.4943,7.09173949 20.3434,7.11823949 C20.1925,7.14473949 20.0486,7.04303949 20.0223,6.89123949 L20.0223,6.89123949 Z" id="Path" fill="#2B2B2A" fill-rule="nonzero"></path>
                <polygon id="Path" fill="#2B2B2A" fill-rule="nonzero" points="19.6456 4.72193949 20.1924 4.62593949 20.5691 6.79523949 20.0223 6.89123949"></polygon>
                <path d="M20.1924,4.62593949 L19.6456,4.72193949 C19.6193,4.57013949 19.7204,4.42543949 19.8713,4.39893949 C20.0222,4.37243949 20.1661,4.47413949 20.1924,4.62593949 L20.1924,4.62593949 Z" id="Path" fill="#2B2B2A" fill-rule="nonzero"></path>
                <path d="M11.6562,6.89123949 C11.6299,7.04303949 11.486,7.14473949 11.3351,7.11823949 C11.1842,7.09173949 11.0831,6.94703949 11.1094,6.79523949 L11.6562,6.89123949 L11.6562,6.89123949 Z" id="Path" fill="#2B2B2A" fill-rule="nonzero"></path>
                <polygon id="Path" fill="#2B2B2A" fill-rule="nonzero" points="12.0329 4.72193949 11.6562 6.89123949 11.1094 6.79523949 11.4861 4.62593949"></polygon>
                <path d="M11.4861,4.62593949 C11.5124,4.47413949 11.6563,4.37243949 11.8072,4.39893949 C11.9581,4.42543949 12.0592,4.57013949 12.0329,4.72193949 L11.4861,4.62593949 L11.4861,4.62593949 Z" id="Path" fill="#2B2B2A" fill-rule="nonzero"></path>
                <polyline id="Path" stroke="#2B2B2A" stroke-width="0.5582" stroke-linecap="round" stroke-linejoin="round" points="11.073 22.4561395 9.2124 26.0865395 4.9012 22.7284395 -7.10542736e-15 24.2713395 2.4052 18.2356395 8.7585 16.8742395 8.4863 19.4155395"></polyline>
                <polyline id="Path" stroke="#2B2B2A" stroke-width="0.5582" stroke-linecap="round" stroke-linejoin="round" points="1.5657 23.8282395 0.9303 25.7796395 4.6406 27.3490395"></polyline>
                <polyline id="Path" stroke="#2B2B2A" stroke-width="0.5582" stroke-linecap="round" stroke-linejoin="round" points="12.6836 29.5855395 13.5813 32.9456395 6.4467 37.5370395 4.2427 34.1235395 4.515 31.1284395 12.6836 29.5855395"></polyline>
                <polyline id="Path" stroke="#2B2B2A" stroke-width="0.5582" stroke-linecap="round" stroke-linejoin="round" points="12.7851 29.6753395 17.6862 28.6770395 16.4383 31.1048395 16.4836 33.1243395 14.7504 32.8461395"></polyline>
                <polygon id="Path" stroke="#2B2B2A" stroke-width="0.5582" stroke-linecap="round" stroke-linejoin="round" points="17.7769 28.6770395 20.5452 29.1534395 21.0898 31.4679395 18.4218 34.5120395 17.6862 33.2150395 16.4834 33.1148395 16.4382 31.1048395 16.4492 31.0836395"></polygon>
                <polygon id="Path" stroke="#2B2B2A" stroke-width="0.5582" stroke-linecap="round" stroke-linejoin="round" points="16.4247 33.1826395 16.3247 33.1456395 16.3247 33.1106395"></polygon>
                <polyline id="Path" stroke="#2B2B2A" stroke-width="0.5582" stroke-linecap="round" stroke-linejoin="round" points="12.0238 55.3423395 5.5124 49.0593395 5.6432 39.0540395"></polyline>
                <polyline id="Path" stroke="#2B2B2A" stroke-width="0.5582" stroke-linecap="round" stroke-linejoin="round" points="5.7956 29.3453395 5.8054 28.4727395 13.2595 26.6158395"></polyline>
                <polyline id="Path" stroke="#2B2B2A" stroke-width="0.5582" stroke-linecap="round" stroke-linejoin="round" points="20.3245 17.7609395 15.8143 22.9308395 15.8055 22.9308395 11.3844 17.9035395"></polyline>
                <polyline id="Path" stroke="#2B2B2A" stroke-width="0.5582" stroke-linecap="round" stroke-linejoin="round" points="17.458 17.0512395 15.8143 18.9353395 15.8055 18.9353395 14.1487 17.0512395"></polyline>
                <path d="M8.6901,16.8742395 L11.3478,15.8240395" id="Path" stroke="#2B2B2A" stroke-width="0.5582" stroke-linecap="round" stroke-linejoin="round"></path>
                <path d="M20.2477,15.8240395 L22.9054,16.8742395" id="Path" stroke="#2B2B2A" stroke-width="0.5582" stroke-linecap="round" stroke-linejoin="round"></path>
                <polyline id="Path" stroke="#2B2B2A" stroke-width="0.5582" stroke-linecap="round" stroke-linejoin="round" points="20.6699 22.4561395 22.5305 26.0865395 26.8417 22.7284395 31.7429 24.2713395 29.3377 18.2356395 22.9844 16.8742395 23.2566 19.4155395"></polyline>
                <path d="M20.0378,15.8415395 L20.5982,15.8415395 C20.5982,15.9959395 20.4727,16.1212395 20.318,16.1212395 C20.1633,16.1212395 20.0378,15.9959395 20.0378,15.8415395 Z" id="Path" fill="#2B2B2A" fill-rule="nonzero"></path>
                <polygon id="Path" fill="#2B2B2A" fill-rule="nonzero" points="20.0378 14.4118395 20.5982 14.4118395 20.5982 15.8415395 20.0378 15.8415395"></polygon>
                <path d="M20.5982,14.4118395 L20.0378,14.4118395 C20.0378,14.2574395 20.1633,14.1321395 20.318,14.1321395 C20.4727,14.1321395 20.5982,14.2574395 20.5982,14.4118395 Z" id="Path" fill="#2B2B2A" fill-rule="nonzero"></path>
                <path d="M10.9728,15.8415395 L11.5332,15.8415395 C11.5332,15.9959395 11.4077,16.1212395 11.253,16.1212395 C11.0983,16.1212395 10.9728,15.9959395 10.9728,15.8415395 Z" id="Path" fill="#2B2B2A" fill-rule="nonzero"></path>
                <polygon id="Path" fill="#2B2B2A" fill-rule="nonzero" points="10.9728 14.4118395 11.5332 14.4118395 11.5332 15.8415395 10.9728 15.8415395"></polygon>
                <path d="M11.5332,14.4118395 L10.9728,14.4118395 C10.9728,14.2574395 11.0983,14.1321395 11.253,14.1321395 C11.4077,14.1321395 11.5332,14.2574395 11.5332,14.4118395 Z" id="Path" fill="#2B2B2A" fill-rule="nonzero"></path>
                <polyline id="Path" stroke="#2B2B2A" stroke-width="0.5582" stroke-linecap="round" stroke-linejoin="round" points="30.1772 23.8282395 30.8126 25.7796395 27.2128 27.2937395"></polyline>
                <polyline id="Path" stroke="#2B2B2A" stroke-width="0.5582" stroke-linecap="round" stroke-linejoin="round" points="30.537 30.4200395 30.8113 34.1231395 27.9864 36.0293395"></polyline>
                <polyline id="Path" stroke="#2B2B2A" stroke-width="0.5582" stroke-linecap="round" stroke-linejoin="round" points="30.3588 25.9837395 31.5387 30.2722395 28.7255 30.6326395"></polyline>
                <path d="M28.8024,30.6659395 L28.7024,30.6919395" id="Path" stroke="#2B2B2A" stroke-width="0.5582" stroke-linecap="round" stroke-linejoin="round"></path>
                <polyline id="Path" stroke="#2B2B2A" stroke-width="0.5582" stroke-linecap="round" stroke-linejoin="round" points="1.1696 30.4200395 0.8953 34.1231395 3.7202 36.0293395"></polyline>
                <polyline id="Path" stroke="#2B2B2A" stroke-width="0.5582" stroke-linecap="round" stroke-linejoin="round" points="1.3478 25.9837395 0.1679 30.2722395 2.9811 30.6326395"></polyline>
                <path d="M2.9811,30.6659395 L3.0811,30.6919395" id="Path" stroke="#2B2B2A" stroke-width="0.5582" stroke-linecap="round" stroke-linejoin="round"></path>
                <polyline id="Path" stroke="#2B2B2A" stroke-width="0.5582" stroke-linecap="round" stroke-linejoin="round" points="19.7191 55.3423395 26.2305 49.0593395 25.9375 28.4727395 18.4494 26.6073395"></polyline>
                <path d="M15.6461,63.8939395 L16.0045,64.2955395 C15.902,64.4025395 15.7386,64.3993395 15.6397,64.2885395 C15.5408,64.1777395 15.5436,64.0009395 15.6461,63.8939395 Z" id="Path" fill="#2B2B2A" fill-rule="nonzero"></path>
                <polygon id="Path" fill="#2B2B2A" fill-rule="nonzero" points="17.381 62.0822395 17.8182 62.2824395 17.7394 62.4838395 16.0045 64.2955395 15.6461 63.8939395"></polygon>
                <path d="M17.7394,62.4838395 L17.381,62.0822395 C17.4835,61.9752395 17.6469,61.9784395 17.7458,62.0892395 C17.8447,62.2000395 17.8419,62.3768395 17.7394,62.4838395 Z" id="Path" fill="#2B2B2A" fill-rule="nonzero"></path>
                <polygon id="Path" fill="#2B2B2A" fill-rule="nonzero" points="17.2531 35.3781395 17.7691 35.3769395 17.8182 62.2824395 17.3022 62.2836395 17.2531 35.3781395"></polygon>
                <path d="M17.7691,35.3769395 L17.2530997,35.3781395 C17.2529,35.2240395 17.3682,35.0987395 17.5106,35.0984389 C17.653,35.0981395 17.7689,35.2228395 17.7691,35.3769395 Z" id="Path" fill="#2B2B2A" fill-rule="nonzero"></path>
                <path d="M17.3438002,27.7885395 C17.344,27.9242395 17.2192,28.0345395 17.0651,28.0347398 C16.911,28.0349395 16.7858,27.9250395 16.7856,27.7893395 L17.3438002,27.7885395 L17.3438002,27.7885395 Z" id="Path" fill="#2B2B2A" fill-rule="nonzero"></path>
                <polygon id="Path" fill="#2B2B2A" fill-rule="nonzero" points="17.339 24.9189395 17.3438 27.7885395 16.7856 27.7893395 16.7808 24.9197395 17.1434 24.6848395"></polygon>
                <path d="M16.7807998,24.9197395 C16.7806,24.7840395 16.9054,24.6737395 17.0595,24.6735392 C17.2136,24.6733395 17.3388,24.7832395 17.339,24.9189395 L16.7807998,24.9197395 L16.7807998,24.9197395 Z" id="Path" fill="#2B2B2A" fill-rule="nonzero"></path>
                <polygon id="Path" fill="#2B2B2A" fill-rule="nonzero" points="15.9401 24.3527395 17.1434 24.6848395 16.9764 25.1538395 15.7731 24.8217395"></polygon>
                <path d="M15.7731,24.8217395 C15.6261,24.7812395 15.5442,24.6432395 15.5903,24.5137395 C15.6364,24.3842395 15.7931,24.3122395 15.9401,24.3527395 L15.7731,24.8217395 L15.7731,24.8217395 Z" id="Path" fill="#2B2B2A" fill-rule="nonzero"></path>
                <path d="M16.2233,63.8939395 C16.3258,64.0009395 16.3286,64.1777395 16.2297,64.2885395 C16.1308,64.3993395 15.9674,64.4025395 15.8649,64.2955395 L16.2233,63.8939395 Z" id="Path" fill="#2B2B2A" fill-rule="nonzero"></path>
                <polygon id="Path" fill="#2B2B2A" fill-rule="nonzero" points="14.4883 62.0822395 16.2233 63.8939395 15.8649 64.2955395 14.1299 62.4838395 14.0511 62.2824395"></polygon>
                <path d="M14.1299,62.4838395 C14.0274,62.3768395 14.0246,62.2000395 14.1235,62.0892395 C14.2224,61.9784395 14.3858,61.9752395 14.4883,62.0822395 L14.1299,62.4838395 Z" id="Path" fill="#2B2B2A" fill-rule="nonzero"></path>
                <polygon id="Path" fill="#2B2B2A" fill-rule="nonzero" points="14.6163 35.3781395 14.5671 62.2836395 14.0511 62.2824395 14.1003 35.3769395"></polygon>
                <path d="M14.1003,35.3769395 C14.1005,35.2228395 14.2164,35.0981395 14.3588,35.0984389 C14.5012,35.0987395 14.6165,35.2240395 14.6163003,35.3781395 L14.1003,35.3769395 Z" id="Path" fill="#2B2B2A" fill-rule="nonzero"></path>
                <path d="M15.0838,27.7893395 C15.0836,27.9250395 14.9584,28.0349395 14.8043,28.0347398 C14.6502,28.0345395 14.5254,27.9242395 14.5255998,27.7885395 L15.0838,27.7893395 L15.0838,27.7893395 Z" id="Path" fill="#2B2B2A" fill-rule="nonzero"></path>
                <polygon id="Path" fill="#2B2B2A" fill-rule="nonzero" points="15.0885 24.9197395 15.0838 27.7893395 14.5256 27.7885395 14.5303 24.9189395 14.7259 24.6848395"></polygon>
                <path d="M14.5303,24.9189395 C14.5305,24.7832395 14.6557,24.6733395 14.8098,24.6735392 C14.9639,24.6737395 15.0887,24.7840395 15.0885002,24.9197395 L14.5303,24.9189395 L14.5303,24.9189395 Z" id="Path" fill="#2B2B2A" fill-rule="nonzero"></path>
                <polygon id="Path" fill="#2B2B2A" fill-rule="nonzero" points="16.0963 24.8217395 14.8929 25.1538395 14.7259 24.6848395 15.9293 24.3527395"></polygon>
                <path d="M15.9293,24.3527395 C16.0763,24.3122395 16.233,24.3842395 16.2791,24.5137395 C16.3252,24.6432395 16.2433,24.7812395 16.0963,24.8217395 L15.9293,24.3527395 L15.9293,24.3527395 Z" id="Path" fill="#2B2B2A" fill-rule="nonzero"></path>
                <path d="M16.0301,7.56253949 L15.4693,7.56253949 C15.4693,7.40703949 15.5949,7.28093949 15.7497,7.28093949 C15.9045,7.28093949 16.0301,7.40703949 16.0301,7.56253949 L16.0301,7.56253949 Z" id="Path" fill="#2B2B2A" fill-rule="nonzero"></path>
                <polygon id="Path" fill="#2B2B2A" fill-rule="nonzero" points="16.0301 14.3895395 15.4693 14.3895395 15.4693 7.56253949 16.0301 7.56253949"></polygon>
                <path d="M15.4693,14.3895395 L16.0301,14.3895395 C16.0301,14.5450395 15.9045,14.6711395 15.7497,14.6711395 C15.5949,14.6711395 15.4693,14.5450395 15.4693,14.3895395 L15.4693,14.3895395 Z" id="Path" fill="#2B2B2A" fill-rule="nonzero"></path>
                <path d="M15.6155,15.4959395 L15.8839,15.9905395 C15.748,16.0649395 15.5776,16.0145395 15.5035,15.8780395 C15.4294,15.7415395 15.4796,15.5703395 15.6155,15.4959395 Z" id="Path" fill="#2B2B2A" fill-rule="nonzero"></path>
                <polygon id="Path" fill="#2B2B2A" fill-rule="nonzero" points="20.8018 12.6566395 21.2164 12.9039395 21.0702 13.1512395 15.8839 15.9905395 15.6155 15.4959395 20.8018 12.6566395"></polygon>
                <path d="M21.0702,13.1512395 L20.8018,12.6566395 C20.9377,12.5822395 21.1081,12.6326395 21.1822,12.7691395 C21.2563,12.9056395 21.2061,13.0768395 21.0702,13.1512395 Z" id="Path" fill="#2B2B2A" fill-rule="nonzero"></path>
                <polygon id="Path" fill="#2B2B2A" fill-rule="nonzero" points="20.6556 7.81123949 21.0038 7.53793949 21.2164 7.81123949 21.2164 12.9039395 20.6556 12.9039395 20.6556 7.81123949"></polygon>
                <path d="M21.2164,7.81123949 L20.6556,7.81123949 C20.6556,7.65573949 20.7812,7.52963949 20.936,7.52963949 C21.0908,7.52963949 21.2164,7.65573949 21.2164,7.81123949 L21.2164,7.81123949 Z" id="Path" fill="#2B2B2A" fill-rule="nonzero"></path>
                <polygon id="Path" fill="#2B2B2A" fill-rule="nonzero" points="15.6819 6.78613949 15.8175 6.23953949 21.0038 7.53793949 20.8682 8.08453949"></polygon>
                <path d="M15.8175,6.23953949 L15.6819,6.78613949 C15.5317,6.74853949 15.4402,6.59563949 15.4776,6.44473949 C15.515,6.29383949 15.6673,6.20193949 15.8175,6.23953949 Z" id="Path" fill="#2B2B2A" fill-rule="nonzero"></path>
                <path d="M19.5705,9.10143949 L19.0125,9.10143949 C19.0125,8.94733949 19.1375,8.82233949 19.2915,8.82233949 C19.4455,8.82233949 19.5705,8.94733949 19.5705,9.10143949 Z" id="Path" fill="#2B2B2A" fill-rule="nonzero"></path>
                <polygon id="Path" fill="#2B2B2A" fill-rule="nonzero" points="19.5705 12.0926395 19.0125 12.0926395 19.0125 9.10143949 19.5705 9.10143949"></polygon>
                <path d="M19.0125,12.0926395 L19.5705,12.0926395 C19.5705,12.2467395 19.4455,12.3717395 19.2915,12.3717395 C19.1375,12.3717395 19.0125,12.2467395 19.0125,12.0926395 Z" id="Path" fill="#2B2B2A" fill-rule="nonzero"></path>
                <path d="M11.9405,9.10143949 C11.9405,8.94733949 12.0655,8.82233949 12.2195,8.82233949 C12.3735,8.82233949 12.4985,8.94733949 12.4985,9.10143949 L11.9405,9.10143949 Z" id="Path" fill="#2B2B2A" fill-rule="nonzero"></path>
                <polygon id="Path" fill="#2B2B2A" fill-rule="nonzero" points="11.9405 12.0926395 11.9405 9.10143949 12.4985 9.10143949 12.4985 12.0926395"></polygon>
                <path d="M12.4985,12.0926395 C12.4985,12.2467395 12.3735,12.3717395 12.2195,12.3717395 C12.0655,12.3717395 11.9405,12.2467395 11.9405,12.0926395 L12.4985,12.0926395 Z" id="Path" fill="#2B2B2A" fill-rule="nonzero"></path>
                <path d="M17.9407,8.88513949 L17.3827,8.88513949 C17.3827,8.73103949 17.5077,8.60603949 17.6617,8.60603949 C17.8157,8.60603949 17.9407,8.73103949 17.9407,8.88513949 Z" id="Path" fill="#2B2B2A" fill-rule="nonzero"></path>
                <polygon id="Path" fill="#2B2B2A" fill-rule="nonzero" points="17.9407 12.5658395 17.3827 12.5658395 17.3827 8.88513949 17.9407 8.88513949"></polygon>
                <path d="M17.3827,12.5658395 L17.9407,12.5658395 C17.9407,12.7199395 17.8157,12.8449395 17.6617,12.8449395 C17.5077,12.8449395 17.3827,12.7199395 17.3827,12.5658395 Z" id="Path" fill="#2B2B2A" fill-rule="nonzero"></path>
                <path d="M13.5703,8.88513949 C13.5703,8.73103949 13.6953,8.60603949 13.8493,8.60603949 C14.0033,8.60603949 14.1283,8.73103949 14.1283,8.88513949 L13.5703,8.88513949 Z" id="Path" fill="#2B2B2A" fill-rule="nonzero"></path>
                <polygon id="Path" fill="#2B2B2A" fill-rule="nonzero" points="13.5703 12.5658395 13.5703 8.88513949 14.1283 8.88513949 14.1283 12.5658395"></polygon>
                <path d="M14.1283,12.5658395 C14.1283,12.7199395 14.0033,12.8449395 13.8493,12.8449395 C13.6953,12.8449395 13.5703,12.7199395 13.5703,12.5658395 L14.1283,12.5658395 Z" id="Path" fill="#2B2B2A" fill-rule="nonzero"></path>
                <path d="M13.0991,35.1423395 C13.2102,35.1423395 13.3004,35.2677395 13.3004,35.4223395 C13.3004,35.5769395 13.2102,35.7023395 13.0991,35.7023395 L13.0991,35.1423395 Z" id="Path" fill="#2B2B2A" fill-rule="nonzero"></path>
                <polygon id="Path" fill="#2B2B2A" fill-rule="nonzero" points="11.8203 35.1423395 13.0991 35.1423395 13.0991 35.7023395 11.8203 35.7023395"></polygon>
                <path d="M11.8203,35.7023395 C11.7092,35.7023395 11.619,35.5769395 11.619,35.4223395 C11.619,35.2677395 11.7092,35.1423395 11.8203,35.1423395 L11.8203,35.7023395 Z" id="Path" fill="#2B2B2A" fill-rule="nonzero"></path>
                <path d="M22.8372,35.1432395 C22.9795,35.1432395 23.095,35.2682395 23.095,35.4223395 C23.095,35.5764395 22.9795,35.7014395 22.8372,35.7014395 L22.8372,35.1432395 Z" id="Path" fill="#2B2B2A" fill-rule="nonzero"></path>
                <polygon id="Path" fill="#2B2B2A" fill-rule="nonzero" points="18.8178 35.1432395 22.8372 35.1432395 22.8372 35.7014395 18.8178 35.7014395"></polygon>
                <path d="M18.8178,35.7014395 C18.6755,35.7014395 18.56,35.5764395 18.56,35.4223395 C18.56,35.2682395 18.6755,35.1432395 18.8178,35.1432395 L18.8178,35.7014395 Z" id="Path" fill="#2B2B2A" fill-rule="nonzero"></path>
                <path d="M15.9325,15.4959395 C16.0684,15.5703395 16.1186,15.7415395 16.0445,15.8780395 C15.9704,16.0145395 15.8,16.0649395 15.6641,15.9905395 L15.9325,15.4959395 Z" id="Path" fill="#2B2B2A" fill-rule="nonzero"></path>
                <polygon id="Path" fill="#2B2B2A" fill-rule="nonzero" points="10.7461 12.6566395 15.9325 15.4959395 15.6641 15.9905395 10.4777 13.1512395 10.3315 12.9039395 10.7461 12.6566395"></polygon>
                <path d="M10.4777,13.1512395 C10.3418,13.0768395 10.2916,12.9056395 10.3657,12.7691395 C10.4398,12.6326395 10.6102,12.5822395 10.7461,12.6566395 L10.4777,13.1512395 Z" id="Path" fill="#2B2B2A" fill-rule="nonzero"></path>
                <polygon id="Path" fill="#2B2B2A" fill-rule="nonzero" points="10.8923 7.81123949 10.8923 12.9039395 10.3315 12.9039395 10.3315 7.81123949 10.5441 7.53793949 10.8923 7.81123949"></polygon>
                <path d="M10.3315,7.81123949 C10.3315,7.65573949 10.4571,7.52963949 10.6119,7.52963949 C10.7667,7.52963949 10.8923,7.65573949 10.8923,7.81123949 L10.3315,7.81123949 L10.3315,7.81123949 Z" id="Path" fill="#2B2B2A" fill-rule="nonzero"></path>
                <polygon id="Path" fill="#2B2B2A" fill-rule="nonzero" points="15.8661 6.78613949 10.6797 8.08453949 10.5441 7.53793949 15.7305 6.23953949"></polygon>
                <path d="M15.7305,6.23953949 C15.8807,6.20193949 16.033,6.29383949 16.0704,6.44473949 C16.1078,6.59563949 16.0163,6.74853949 15.8661,6.78613949 L15.7305,6.23953949 Z" id="Path" fill="#2B2B2A" fill-rule="nonzero"></path>
            </g>
        </g>
    </g>
</svg>