<svg xmlns="http://www.w3.org/2000/svg" viewBox="0 0 145.77 98.78"><path d="M37.25 92.68H0V77.23h10.82v-6.87h.94l-4.58-7 1.44-1 5.22 7.91h6.44V69h-5.35l-2.52-5.4 4.43-2.21 3.44-3.44v-5.7l-.12-.18.72-.48 10.74-7-10.33-5.94-8.46 8.46.05.07-.34.28v9.36l-5.75 4.09-.72.48L5.12 60l.72-.48 5-3.57v-8.54l-.36-.36.06-.06-3.45-4.21 5.21-5.26-3.41-5.42 1.46-.92 4.14 6.58-5.08 5.13 2.33 2.87 8.33-8.33-7.25-12.69a.88.88 0 01.07-1l6.46-8.07h-2a.87.87 0 01-.87-.87V11a.87.87 0 01.87-.86h3.79A.87.87 0 0122 11v3h15.17v7.27h-5.52v-1.9h-2.06v2.05h-1.73v-3.81h5.52v1.9h2.06V15.7H21.62l-.93 1.13 1 1.15.29.31 4.7 5.15h6l1.81-1.6 1.14 1.3-2.3 2H28.2l2.09 2.31 10.84-3.75v-5.94h63v5.94l10.84 3.79 2.03-2.31h-5.19l-2.3-2 1.14-1.3 1.81 1.6h6l4.7-5.15.28-.31 1-1.15-.93-1.13h-13.74v3.81h2.06v-1.9h5.52v3.78h-1.73v-2.09h-2.06v1.9H108V14h15.2v-3a.86.86 0 01.86-.86h3.79a.87.87 0 01.87.86v3.79a.87.87 0 01-.87.87h-2l6.45 8.07a.87.87 0 01.08 1l-7.25 12.69 8.33 8.33 2.33-2.87-5.08-5.13 4.14-6.58 1.46.92-3.41 5.42 5.21 5.26L134.7 47l.06.06-.36.36v8.48l5 3.57.72.48-1 1.44-.72-.48-5.75-4.09v-9.36l-.35-.28.06-.07-8.46-8.46-10.33 5.91 10.73 7 .73.48-.12.18v5.68l3.44 3.44 4.43 2.21-2.5 5.45h-5.35v1.41h6.44l5.22-7.91 1.44 1-4.58 7h1.67v6.87h10.65v15.31h-37.25V91H144V79h-8.92v8.78H10.82V79H1.73v12h35.52v1.73zm14.34-9.94h5.78V81.4h-3.82l3.82-4.4v-1.19h-5.66v1.33h3.69l-3.81 4.44zm12.94 0h1.53v-2.12l.8-.83L69 82.74h1.83l-3-4 2.82-2.94h-1.78l-2.81 3v-3h-1.53v6.93zm15.2.12a2.26 2.26 0 002.49-2.27 1.92 1.92 0 00-1.86-1.94L82.12 77v-1.19h-4.69v1.3h2.72l-1.65 1.67.24 1h.63c.85 0 1.36.32 1.36.88a.87.87 0 01-1 .84 2.12 2.12 0 01-1.68-.83l-1 1a3.39 3.39 0 002.71 1.2zm11.81 0a2.36 2.36 0 002.63-2.4 2.13 2.13 0 00-2.42-2.22 3.29 3.29 0 00-.91.12l.08-1.2h3v-1.35h-4.31l-.2 3.41.88.59a3 3 0 011.16-.26c.72 0 1.23.35 1.23.94 0 .62-.45 1-1.16 1a2.39 2.39 0 01-1.65-.75l-.93 1.1a3.6 3.6 0 002.6 1zm-11.14 8.4l.61-.61-1.22-1.22-6.91 6.9-6.88-6.9-1.22 1.22 8.12 8.13 7.52-7.52zm-.75-30.14h1.51v-3h1.51v1.51h1.51v3h-4.53zm1.51-6h1.51v-1.55h-1.51zM63 43h1.51v1.5H63zm1.51 0v-1.52H66V43zm0-1.51H63V43h-3v-1.52h1.51v-3H60V40h-1.51v-1.55H57V40h1.51v1.52h-3v-3H54v3h1.52V43H57v1.5h-3v3h1.52V49H54v1.51h1.52v1.51h3v-1.48H60v1.51h1.51v-4.53H63V49h3v1.51h-3v1.51h3v1.52h3v-1.49h1.51v3h1.51v1.51h-3v3h3v-3h3v3H73.6v1.51h1.51v-1.46h1.51v3h1.51v1.51h6.05v-1.49h3v-1.51h-1.49v-1.51h3V58.1H87.2v-7.56h-1.51V49h-1.51v-1.48h-1.51V46h1.51v-1.5h1.51v3h1.51V49h1.51v1.51h1.51V49h1.52v-4.5h-1.52V43h1.52v-3h-1.52v-1.55h-1.51V40h1.51v1.52h-3V43h1.51v3h1.51v1.51h-3v-3h-1.55V43h-4.53v7.55h-3v3h-3v-1.5H73.6v-1.51h-1.51V49h-1.51v1.51h-1.51V49h-1.51v-1.48H66v-3h1.52V46h1.51v1.51h3V46h-1.45v-1.5h-3V43h1.51v-1.52h1.51V43h1.51v1.5h3v3H73.6V49h1.51v-1.48h1.51v-3h3V43h-3v-1.52h-1.51V40H73.6v1.52h-1.51v-3h1.51v-3h-1.51v1.51h-1.51v-1.6h-1.51v1.51h-1.51v-1.51H66v1.51h1.52v3h1.51v1.52H66V40h-1.47v-1.55H63V40h1.51v1.52zM76.62 30.9h1.51v-1.51h-1.51zm-1.51-3h1.51v-1.54h-1.51v1.51H73.6v-1.51h-4.53v1.51H66v1.52h1.52v1.51h1.51v1.51H66v1.51h3v-1.51h1.51v-3h1.51v3h1.58v1.51h1.51v3h1.51v-1.49h1.51v3h-1.51V40h3v1.52h3V40h-3v-7.59h-1.49v1.51h-3v-3H73.6v-1.53h1.51v-1.52zM55.47 49H57v-1.48h-1.53V46H60v3h-1.51v1.51h-3V49zm34.75 12.12h1.52v-1.51h-1.52v1.51h-1.51v3h3v-1.49h-1.49v-1.51zm-22.66 0v-1.51H66v1.51h1.52v1.51H66v1.51h4.54v-1.51h1.51v1.51h1.55v-1.51h-1.51v-1.51zM66 58.1h1.52v-1.51H66zM84.18 40h1.51v-1.55h-1.51zm6 16.63v1.47h1.52v-1.51h-1.48v-1.51h1.52v-3h-3v4.54zm-19.6-6.09h1.51v1.51h-1.51zm3-9.06h1.51V43H73.6zm0-13.61v1.52h-1.49v-1.52zM66 52.05v-1.51h1.52v1.51zm12.09-3h1.52V46h-1.48zM57 61.12h4.53v-4.53H57zm0-27.2h4.53v-4.53H57zm27.2 0h4.53v-4.53h-4.55zM69.07 40v-1.55h1.51V40zm-13.6 15.08H63v7.55h-7.53zM54 64.14h10.53V53.57H54zm28.67-36.27h7.55v7.56h-7.55zm-1.51 9.07h10.58V26.36H81.16zm-25.69-9.07H63v7.56h-7.53zM54 36.94h10.53V26.36H54zm9 10.58V46h1.51v1.51zm16.63 13.6h-1.5v-1.51h1.52zm-3-6h1.51v3h-1.52zm3-3h4.53v4.54h-4.51zm-4.54 1.52v1.51H73.6v-1.58zM84.18 49v1.51h-1.51V49zM12.67 77.23v8.68h120.61V72.19H12.67zM45 67.9V42.54L34.32 46.1l-1-.58L22 52.92v5.69l-4.13 4.14-3.16 1.57 1.29 2.9h6v3.14h8l-5.9-5.89v-5h1.7v4.26l6.62 6.61h4.92v-1.6H32l-2.3-4.59 1.89-5.64-3.83-6.48 1.48-.88.44.74 3.79 6.41-1.92 5.7 1.5 3h6v3.33h67.07V67h6l1.5-3-1.91-5.72 3.79-6.41.44-.74 1.48.88-3.83 6.48 1.89 5.64-2.3 4.59h-5.35v1.6h4.92l6.62-6.61v-4.22h1.73v5l-5.9 5.89h8v-3.16h6l1.27-2.9-3.16-1.57-4.13-4.14v-5.69l-11.3-7.4-1 .58-10.68-3.57V67.9h-1.73V19.48H46.71V67.9zM62.72 5.36l.68.53-1.06 1.36-.68-.53-4.12-3.19v9.74H88V3.49l-4.46 3.38-.69.52L81.81 6l.69-.52L89.76 0v15H55.81V0l6.91 5.36zm17.58 2.7l.61.61-1.22 1.22L72.78 3l-6.9 6.9-1.23-1.23L72.78.54l7.52 7.52zm19.9 19.85v5h3.88v3.79h8.43v1.73h-10.16v-3.78h-2.06v6.1l10.41 3.47 1.12-.65.08-.12h.06l11.57-6.61.11-.11 1.29-2.45 5.67-9.93-5-6.21-13.39 14.95-1.29-1.15 2.75-3.06-11.32-4v-5.39h-2.06v6.3l8 6.32-1.07 1.36-7.07-5.56zm20.93-9.63v.45h-1.73v-2.07h1.73zm3.8-6.37V14H127v-2.09zm-80 21v-5l-7 5.54-1.07-1.36 8.05-6.32v-6.3h-2.05v5.43l-11.32 4 2.75 3.06L33 33.09 19.58 18.18l-5 6.21 5.67 9.93 1.29 2.45.11.11 11.57 6.61h.06l.07.12 1.13.65 10.41-3.47v-6.1h-2.03v3.79H32.7v-1.77h8.43v-3.79zM24.08 18.28v-1.62h1.73v2.07h-1.73zm-3.8-6.37h-2.06V14h2.06z" fill="#2b2b2a" fill-rule="evenodd" data-name="Layer_1"/></svg>