<?xml version="1.0" encoding="UTF-8"?>
<!DOCTYPE svg PUBLIC "-//W3C//DTD SVG 1.1//EN" "http://www.w3.org/Graphics/SVG/1.1/DTD/svg11.dtd">
<!-- Creator: CorelDRAW -->
<svg xmlns="http://www.w3.org/2000/svg" xml:space="preserve" width="297mm" height="150mm" version="1.1" style="shape-rendering:geometricPrecision; text-rendering:geometricPrecision; image-rendering:optimizeQuality; fill-rule:evenodd; clip-rule:evenodd"
viewBox="0 0 29700 15000"
 xmlns:xlink="http://www.w3.org/1999/xlink"
 xmlns:xodm="http://www.corel.com/coreldraw/odm/2003">
 <defs>
  <style type="text/css">
   <![CDATA[
    .str0 {stroke:#2B2B2A;stroke-width:20;stroke-miterlimit:22.9256}
    .str10 {stroke:#2B2B2A;stroke-width:32.15;stroke-linecap:round;stroke-linejoin:round;stroke-miterlimit:22.9256}
    .str16 {stroke:#2B2B2A;stroke-width:32.15;stroke-linecap:round;stroke-linejoin:round;stroke-miterlimit:22.9256}
    .str14 {stroke:#2B2B2A;stroke-width:32.15;stroke-linecap:round;stroke-linejoin:round;stroke-miterlimit:22.9256}
    .str6 {stroke:#2B2B2A;stroke-width:32.15;stroke-linecap:round;stroke-linejoin:round;stroke-miterlimit:22.9256}
    .str7 {stroke:#2B2B2A;stroke-width:32.15;stroke-linecap:round;stroke-linejoin:round;stroke-miterlimit:22.9256}
    .str5 {stroke:#2B2B2A;stroke-width:32.15;stroke-linecap:round;stroke-linejoin:round;stroke-miterlimit:22.9256}
    .str4 {stroke:#2B2B2A;stroke-width:32.15;stroke-linecap:round;stroke-linejoin:round;stroke-miterlimit:22.9256}
    .str17 {stroke:#2B2B2A;stroke-width:32.15;stroke-linecap:round;stroke-linejoin:round;stroke-miterlimit:22.9256}
    .str3 {stroke:#2B2B2A;stroke-width:32.15;stroke-linecap:round;stroke-linejoin:round;stroke-miterlimit:22.9256}
    .str11 {stroke:#2B2B2A;stroke-width:32.15;stroke-linecap:round;stroke-linejoin:round;stroke-miterlimit:22.9256}
    .str1 {stroke:#2B2B2A;stroke-width:32.15;stroke-linecap:round;stroke-linejoin:round;stroke-miterlimit:22.9256}
    .str2 {stroke:#2B2B2A;stroke-width:32.15;stroke-linecap:round;stroke-linejoin:round;stroke-miterlimit:22.9256}
    .str12 {stroke:#2B2B2A;stroke-width:32.15;stroke-linecap:round;stroke-linejoin:round;stroke-miterlimit:22.9256}
    .str13 {stroke:#2B2B2A;stroke-width:32.15;stroke-linecap:round;stroke-linejoin:round;stroke-miterlimit:22.9256}
    .str15 {stroke:#2B2B2A;stroke-width:32.15;stroke-linecap:round;stroke-linejoin:round;stroke-miterlimit:22.9256}
    .str8 {stroke:#2B2B2A;stroke-width:32.15;stroke-linecap:round;stroke-linejoin:round;stroke-miterlimit:22.9256}
    .str18 {stroke:#2B2B2A;stroke-width:32.15;stroke-linecap:round;stroke-linejoin:round;stroke-miterlimit:22.9256}
    .str9 {stroke:#2B2B2A;stroke-width:32.15;stroke-linecap:round;stroke-linejoin:round;stroke-miterlimit:22.9256}
    .str36 {stroke:#2B2B2A;stroke-width:55.82;stroke-linecap:round;stroke-linejoin:round;stroke-miterlimit:22.9256}
    .str26 {stroke:#2B2B2A;stroke-width:55.82;stroke-linecap:round;stroke-linejoin:round;stroke-miterlimit:22.9256}
    .str29 {stroke:#2B2B2A;stroke-width:55.82;stroke-linecap:round;stroke-linejoin:round;stroke-miterlimit:22.9256}
    .str19 {stroke:#2B2B2A;stroke-width:55.82;stroke-linecap:round;stroke-linejoin:round;stroke-miterlimit:22.9256}
    .str35 {stroke:#2B2B2A;stroke-width:55.82;stroke-linecap:round;stroke-linejoin:round;stroke-miterlimit:22.9256}
    .str22 {stroke:#2B2B2A;stroke-width:55.82;stroke-linecap:round;stroke-linejoin:round;stroke-miterlimit:22.9256}
    .str21 {stroke:#2B2B2A;stroke-width:55.82;stroke-linecap:round;stroke-linejoin:round;stroke-miterlimit:22.9256}
    .str23 {stroke:#2B2B2A;stroke-width:55.82;stroke-linecap:round;stroke-linejoin:round;stroke-miterlimit:22.9256}
    .str25 {stroke:#2B2B2A;stroke-width:55.82;stroke-linecap:round;stroke-linejoin:round;stroke-miterlimit:22.9256}
    .str24 {stroke:#2B2B2A;stroke-width:55.82;stroke-linecap:round;stroke-linejoin:round;stroke-miterlimit:22.9256}
    .str33 {stroke:#2B2B2A;stroke-width:55.82;stroke-linecap:round;stroke-linejoin:round;stroke-miterlimit:22.9256}
    .str20 {stroke:#2B2B2A;stroke-width:55.82;stroke-linecap:round;stroke-linejoin:round;stroke-miterlimit:22.9256}
    .str31 {stroke:#2B2B2A;stroke-width:55.82;stroke-linecap:round;stroke-linejoin:round;stroke-miterlimit:22.9256}
    .str30 {stroke:#2B2B2A;stroke-width:55.82;stroke-linecap:round;stroke-linejoin:round;stroke-miterlimit:22.9256}
    .str27 {stroke:#2B2B2A;stroke-width:55.82;stroke-linecap:round;stroke-linejoin:round;stroke-miterlimit:22.9256}
    .str34 {stroke:#2B2B2A;stroke-width:55.82;stroke-linecap:round;stroke-linejoin:round;stroke-miterlimit:22.9256}
    .str32 {stroke:#2B2B2A;stroke-width:55.82;stroke-linecap:round;stroke-linejoin:round;stroke-miterlimit:22.9256}
    .str28 {stroke:#2B2B2A;stroke-width:55.82;stroke-linecap:round;stroke-linejoin:round;stroke-miterlimit:22.9256}
    .fil3 {fill:none}
    .fil2 {fill:#2B2B2A}
    .fil0 {fill:#FFF268}
    .fil1 {fill:#2B2B2A;fill-rule:nonzero}
   ]]>
  </style>
 </defs>
 <g id="Layer_x0020_1">
  <metadata id="CorelCorpID_0Corel-Layer"/>
  <polygon class="fil0" points="-9526.67,8781.54 -9230.8,8707.47 -9230.8,8706.77 -9229.4,8707.12 -9228.01,8706.77 -9228.01,8707.47 -8932.14,8781.54 -8932.14,9074.82 -9228.01,9236.79 -9228.01,9238.32 -9229.4,9237.56 -9230.8,9238.32 -9230.8,9236.79 -9526.67,9074.82 "/>
  <path class="fil0" d="M-9303.41 10368.67l156.09 0 0.02 0 2.17 1434.57 0 114.7 -80.76 86.99 -77.52 -82.92 0 -1553.34zm158.28 1549.27l-80.76 86.99 1.1 1.41 79.66 -84.33 0 -4.07zm-2.17 -1549.27l2.17 0 0 1434.57 -2.17 -1434.57z"/>
  <rect class="fil0" x="-11020.58" y="6824.14" width="1228.12" height="674.51" rx="80.03" ry="88.52"/>
  <path class="fil1" d="M-11128.88 5739.3c4.1,-40.93 30.21,-67.03 64.52,-67.03 37.88,0 60.4,22.51 60.4,62.94 0,40.93 -20.47,63.44 -60.4,63.44l-27.14 0 0 36.85 34.81 0c41.99,0 67.07,35.81 67.07,70.61 0,35.81 -14.34,76.24 -69.63,76.24 -55.29,0 -71.16,-31.73 -74.23,-86.48l-40.97 0c5.13,73.69 32.77,123.32 114.18,123.32 93.17,0 113.14,-68.05 113.14,-107.97 0,-54.23 -29.18,-89.03 -71.16,-97.22 30.21,-11.76 56.83,-38.37 56.83,-87.49 0,-52.19 -40.96,-91.08 -98.81,-91.08 -62.98,0 -101.37,39.91 -109.56,103.87l40.95 0zm296.59 271.19l45.05 0 27.13 -105.92 116.22 0 29.19 105.92 45.05 0 -103.42 -368.41 -54.27 0 -104.95 368.41zm179.19 -142.76l-97.28 0 48.64 -195.97 1.03 0 47.61 195.97zm251.52 -225.65l-40.95 0 0 368.41 40.95 0 0 -128.43 43.01 -53.73 98.29 182.16 47.62 0 -121.34 -214.39 117.76 -154.02 -51.2 0 -134.14 189.32 0 -189.32zm357 36.84l51.71 0c49.15,0 78.34,14.84 78.34,67.03 0,62.94 -33.79,71.64 -90.12,71.64l-39.93 0 0 -138.67zm0 175.51l53.76 0c66.56,0 118.78,-22.52 118.78,-108.48 0,-72.66 -44.04,-103.87 -111.1,-103.87l-102.39 0 0 368.41 40.95 0 0 -156.06zm431.23 164.76c107.51,0 121.85,-91.59 121.85,-193.42 0,-84.42 -13.82,-190.85 -121.85,-190.85 -107.51,0 -121.34,106.43 -121.34,190.85 0,101.83 13.83,193.42 121.34,193.42zm79.36 -199.56c0,106.43 -11.78,162.72 -79.36,162.72 -67.58,0 -78.84,-56.29 -78.84,-163.23 0,-82.38 14.84,-147.36 77.82,-147.36 65.02,0 80.38,65.49 80.38,147.87zm190.09 -177.55l0 368.41 59.38 0 115.2 -290.12c6.65,-16.89 10.75,-37.87 14.34,-59.87l1.02 0c-0.51,18.42 -1.02,37.35 -1.02,56.29l0 293.7 40.95 0 0 -368.41 -59.38 0 -114.69 291.15c-8.19,20.46 -9.73,33.77 -14.85,50.65l-1.02 0c0.51,-13.3 1.02,-27.63 1.02,-40.93l0 -300.87 -40.95 0zm44.02 -85.45c0,43.49 30.21,62.94 66.05,62.94 39.43,0 69.11,-18.94 69.11,-62.94l-20.98 0c-5.63,26.61 -20.99,35.31 -46.09,35.31 -24.06,0 -40.95,-9.73 -47.09,-35.31l-21 0zm677.5 195.97c0,-66 -35.33,-117.68 -104.96,-117.68 -100.86,0 -116.22,103.87 -116.22,186.76 0,86.99 8.7,197.51 117.25,197.51 78.32,0 99.32,-56.8 103.93,-141.74l-40.97 0c-4.09,60.89 -12.79,104.9 -66.03,104.9 -67.58,0 -71.69,-86.99 -71.69,-161.69 0,-48.61 0.51,-148.9 71.69,-148.9 51.2,0 66.03,36.33 66.03,80.84l40.97 0zm186.5 -73.68l54.78 0c37.37,0 59.9,15.86 59.9,57.82 0,47.08 -23.04,61.91 -63.99,61.91l-50.69 0 0 -119.73zm0 156.58l57.34 0c41.98,0 67.58,19.44 67.58,69.07 0,48.1 -19.97,69.08 -64,69.08l-60.92 0 0 -138.15zm-40.96 174.99l101.88 0c68.61,0 106.49,-36.84 106.49,-105.41 0,-51.16 -29.18,-84.93 -63.99,-89.54l0 -1.02c34.81,-9.21 53.76,-39.4 53.76,-80.34 0,-55.26 -32.26,-92.1 -101.38,-92.1l-96.76 0 0 368.41zm465.02 8.7c107.52,0 121.85,-91.59 121.85,-193.42 0,-84.42 -13.81,-190.85 -121.85,-190.85 -107.51,0 -121.34,106.43 -121.34,190.85 0,101.83 13.83,193.42 121.34,193.42zm79.36 -199.56c0,106.43 -11.78,162.72 -79.36,162.72 -67.58,0 -78.84,-56.29 -78.84,-163.23 0,-82.38 14.85,-147.36 77.82,-147.36 65.02,0 80.38,65.49 80.38,147.87zm231.04 -177.55l-40.95 0 0 368.41 40.95 0 0 -174.99 64 0c0,98.24 17.41,183.69 121.34,183.69 107.51,0 121.34,-91.59 121.34,-193.42 0,-84.42 -13.32,-190.85 -121.34,-190.85 -97.27,0 -121.34,85.45 -121.34,163.73l-64 0 0 -156.57zm184.32 29.68c65.02,0 79.87,66 79.87,147.87 0,106.94 -11.27,162.72 -78.85,162.72 -68.09,0 -78.84,-56.29 -78.84,-162.72 0,-82.38 14.84,-147.87 77.82,-147.87l0 0zm-3751.61 728.72c4.1,-40.93 30.21,-67.03 64.52,-67.03 37.88,0 60.4,22.51 60.4,62.94 0,40.93 -20.47,63.44 -60.4,63.44l-27.14 0 0 36.85 34.81 0c41.98,0 67.07,35.81 67.07,70.61 0,35.81 -14.34,76.24 -69.63,76.24 -55.29,0 -71.16,-31.73 -74.23,-86.48l-40.97 0c5.12,73.69 32.77,123.32 114.18,123.32 93.17,0 113.14,-68.05 113.14,-107.97 0,-54.23 -29.18,-89.03 -71.16,-97.22 30.21,-11.76 56.83,-38.37 56.83,-87.49 0,-52.19 -40.96,-91.08 -98.81,-91.08 -62.98,0 -101.37,39.91 -109.57,103.87l40.96 0zm296.59 271.19l45.05 0 27.13 -105.92 116.22 0 29.19 105.92 45.05 0 -103.42 -368.41 -54.27 0 -104.95 368.41zm179.18 -142.76l-97.27 0 48.64 -195.97 1.03 0 47.6 195.97zm246.41 -225.65l0 94.15c0,110.01 -4.09,177.04 -38.9,237.42l-24.58 0 0 122.8 38.9 0 0 -85.96 210.43 0 0 85.96 38.91 0 0 -122.8 -29.18 0 0 -331.57 -195.58 0zm154.62 36.84l0 294.73 -149.5 0c24.07,-48.61 35.84,-112.06 35.84,-199.04l0 -95.69 113.66 0zm311.43 340.27c107.51,0 121.85,-91.59 121.85,-193.42 0,-84.42 -13.82,-190.85 -121.85,-190.85 -107.51,0 -121.34,106.43 -121.34,190.85 0,101.83 13.83,193.42 121.34,193.42zm79.36 -199.56c0,106.43 -11.78,162.72 -79.36,162.72 -67.58,0 -78.85,-56.29 -78.85,-163.23 0,-82.38 14.85,-147.36 77.83,-147.36 65.02,0 80.38,65.49 80.38,147.87zm216.19 -177.55l0 160.67c0,118.2 -3.07,175.5 -40.95,175.5 -4.62,0 -10.25,-0.51 -15.87,-2.55l0 36.33c8.18,2.04 16.89,3.07 24.57,3.07 71.67,0 73.22,-107.97 73.22,-190.35l0 -145.83 123.89 0 0 331.57 40.96 0 0 -368.41 -205.82 0zm521.86 0l0 189.32 -134.15 -189.32 -51.19 0 117.75 154.02 -121.33 214.39 47.6 0 98.3 -182.16 43.02 53.73 0 128.43 40.95 0 0 -128.43 43 -53.73 98.3 182.16 47.62 0 -121.34 -214.39 117.76 -154.02 -51.2 0 -134.14 189.32 0 -189.32 -40.95 0zm397.94 0l-40.96 0 0 368.41 40.96 0 0 -174.99 140.79 0 0 174.99 40.96 0 0 -368.41 -40.96 0 0 156.57 -140.79 0 0 -156.57zm450.68 377.11c107.51,0 121.85,-91.59 121.85,-193.42 0,-84.42 -13.82,-190.85 -121.85,-190.85 -107.51,0 -121.34,106.43 -121.34,190.85 0,101.83 13.83,193.42 121.34,193.42zm79.36 -199.56c0,106.43 -11.78,162.72 -79.36,162.72 -67.58,0 -78.85,-56.29 -78.85,-163.23 0,-82.38 14.85,-147.36 77.83,-147.36 65.02,0 80.38,65.49 80.38,147.87zm401.02 -67.03c0,-66 -35.33,-117.68 -104.96,-117.68 -100.86,0 -116.22,103.87 -116.22,186.76 0,86.99 8.7,197.51 117.25,197.51 78.32,0 99.32,-56.8 103.93,-141.74l-40.97 0c-4.09,60.89 -12.79,104.9 -66.03,104.9 -67.58,0 -71.69,-86.99 -71.69,-161.69 0,-48.61 0.51,-148.9 71.69,-148.9 51.2,0 66.03,36.33 66.03,80.84l40.97 0zm251 -73.68l95.23 0 0 -36.84 -231.92 0 0 36.84 95.74 0 0 331.57 40.95 0 0 -331.57zm262.8 156.58l34.81 0c56.83,0 90.11,12.28 90.11,71.12 0,52.19 -29.19,67.03 -78.34,67.03l-46.58 0 0 -138.15zm0 -193.42l-40.96 0 0 368.41 97.79 0c66.56,0 110.58,-30.7 110.58,-103.87 0,-85.45 -52.22,-107.97 -118.77,-107.97l-48.64 0 0 -156.57zm-4266.55 758.4c4.11,-40.93 30.21,-67.03 64.52,-67.03 37.88,0 60.41,22.51 60.41,62.94 0,40.93 -20.47,63.44 -60.41,63.44l-27.13 0 0 36.85 34.81 0c41.98,0 67.07,35.81 67.07,70.61 0,35.81 -14.34,76.24 -69.64,76.24 -55.29,0 -71.16,-31.73 -74.23,-86.48l-40.96 0c5.12,73.69 32.77,123.32 114.17,123.32 93.18,0 113.15,-68.05 113.15,-107.97 0,-54.23 -29.19,-89.03 -71.16,-97.22 30.21,-11.76 56.82,-38.37 56.82,-87.49 0,-52.19 -40.95,-91.08 -98.81,-91.08 -62.97,0 -101.36,39.91 -109.56,103.87l40.95 0zm296.6 271.19l45.04 0 27.14 -105.92 116.22 0 29.18 105.92 45.06 0 -103.42 -368.41 -54.27 0 -104.95 368.41zm179.18 -142.76l-97.28 0 48.64 -195.97 1.03 0 47.61 195.97zm388.74 -28.65c61.94,0 86.52,11.77 86.52,76.24 0,37.86 -19.45,66 -59.91,66 -50.17,0 -59.89,-40.42 -59.89,-80.33l-40.45 0c0,67.03 30.2,117.18 100.34,117.18 69.63,0 100.87,-46.06 100.87,-107.46 0,-49.12 -22.02,-82.89 -65.54,-92.61 39.94,-10.24 55.81,-44.52 55.81,-84.43 0,-54.75 -35.83,-91.59 -90.62,-91.59 -60.92,0 -93.69,47.59 -93.69,108.99l38.91 0c0,-37.35 13.31,-72.15 52.22,-72.15 37.88,0 51.71,24.56 51.71,60.38 0,49.12 -28.67,62.94 -76.28,62.94l0 36.84zm285.31 -189.84l-22.01 189.84 36.35 0c10.24,-23.03 27.14,-33.77 51.71,-33.77 52.22,0 61.44,44.51 61.44,86.47 0,46.05 -15.36,89.54 -58.88,89.54 -41.98,0 -54.27,-28.14 -54.27,-67.03l-42.49 0c0,67.03 32.25,103.88 97.78,103.88 76.29,0 100.35,-67.55 100.35,-132.53 0,-59.87 -26.11,-117.17 -94.2,-117.17 -25.09,0 -41.99,9.21 -59.39,26.6l16.38 -108.99 123.9 0 0 -36.84 -156.67 0zm566.91 -7.16l-25.08 0 -164.35 376.09 26.63 0 162.8 -376.09zm12.29 190.35c-50.69,0 -66.05,40.93 -66.05,86.98 0,69.59 24.58,91.08 66.05,91.08 40.44,0 66.56,-21.49 66.56,-89.54 0,-47.59 -15.87,-88.52 -66.56,-88.52zm0 27.63c31.23,0 33.79,34.79 33.79,67.54 0,22.51 -3.58,55.26 -33.28,55.26 -30.21,0 -33.79,-32.75 -33.79,-55.26 0,-33.26 3.07,-67.54 33.28,-67.54zm-211.44 -211.33c-50.69,0 -66.05,40.94 -66.05,86.99 0,69.59 24.57,91.08 66.05,91.08 40.44,0 66.55,-21.49 66.55,-89.55 0,-47.58 -15.87,-88.52 -66.55,-88.52zm0 27.63c31.23,0 33.79,34.8 33.79,67.54 0,22.52 -3.59,55.27 -33.28,55.27 -30.21,0 -33.79,-32.75 -33.79,-55.27 0,-33.25 3.07,-67.54 33.28,-67.54zm669.8 342.83c107.51,0 121.85,-91.59 121.85,-193.42 0,-84.42 -13.82,-190.85 -121.85,-190.85 -107.52,0 -121.34,106.43 -121.34,190.85 0,101.83 13.82,193.42 121.34,193.42zm79.35 -199.56c0,106.43 -11.77,162.72 -79.35,162.72 -67.58,0 -78.85,-56.29 -78.85,-163.23 0,-82.38 14.85,-147.36 77.83,-147.36 65.01,0 80.37,65.49 80.37,147.87zm295.56 -140.71l95.22 0 0 -36.84 -231.92 0 0 36.84 95.74 0 0 331.57 40.96 0 0 -331.57zm555.64 73.68c0,-66 -35.33,-117.68 -104.96,-117.68 -100.86,0 -116.22,103.87 -116.22,186.76 0,86.99 8.71,197.51 117.25,197.51 78.32,0 99.32,-56.8 103.93,-141.74l-40.96 0c-4.1,60.89 -12.8,104.9 -66.04,104.9 -67.58,0 -71.68,-86.99 -71.68,-161.69 0,-48.61 0.51,-148.9 71.68,-148.9 51.2,0 66.04,36.33 66.04,80.84l40.96 0zm114.83 -110.52l108.53 305.47c-8.2,28.15 -16.89,34.8 -31.23,34.8 -9.21,0 -20.48,-1.03 -27.13,-4.61l0 36.84c5.63,2.56 14.84,4.61 31.22,4.61 29.7,0 50.69,-14.84 68.61,-69.59l101.37 -307.52 -43 0 -78.85 255.84 -86.01 -255.84 -43.51 0zm370.3 0l0 368.41 40.96 0 0 -302.4c0,-15.86 -1.54,-28.15 -1.54,-47.59l1.02 0c4.61,19.96 7.68,32.24 10.75,45.03l77.32 304.96 48.63 0 77.31 -300.87c3.58,-14.84 7.16,-27.63 12.29,-49.12l1.54 0c0,13.82 -1.54,30.7 -1.54,46.56l0 303.43 40.96 0 0 -368.41 -72.19 0 -73.21 287.05c-5.64,20.98 -6.66,36.33 -9.22,54.75l-1.03 0c-2.04,-23.53 -4.09,-38.89 -7.67,-54.24l-72.2 -287.56 -72.18 0zm465.53 0l0 368.41 40.96 0 0 -302.4c0,-15.86 -1.53,-28.15 -1.53,-47.59l1.02 0c4.6,19.96 7.67,32.24 10.74,45.03l77.32 304.96 48.64 0 77.3 -300.87c3.58,-14.84 7.16,-27.63 12.29,-49.12l1.54 0c0,13.82 -1.54,30.7 -1.54,46.56l0 303.43 40.96 0 0 -368.41 -72.19 0 -73.21 287.05c-5.64,20.98 -6.66,36.33 -9.22,54.75l-1.03 0c-2.04,-23.53 -4.09,-38.89 -7.67,-54.24l-72.2 -287.56 -72.18 0zm506.49 193.42l34.81 0c56.83,0 90.11,12.28 90.11,71.12 0,52.19 -29.19,67.03 -78.34,67.03l-46.58 0 0 -138.15zm0 -193.42l-40.96 0 0 368.41 97.79 0c66.56,0 110.58,-30.7 110.58,-103.87 0,-85.45 -52.22,-107.97 -118.77,-107.97l-48.64 0 0 -156.57zm264.69 0l-40.96 0 0 368.41 40.96 0 0 -368.41z"/>
  <polygon class="fil1" points="-8718.54,4501.42 -8148.65,4501.42 -8148.65,4309.05 -8321.27,4309.05 -8321.27,4281.32 -8120.92,4281.32 -8120.92,4529.15 -8718.54,4529.15 "/>
  <polygon class="fil1" points="-9861.96,4529.15 -10459.58,4529.15 -10459.58,4281.32 -10256.32,4281.32 -10256.32,4309.05 -10431.85,4309.05 -10431.85,4501.42 -9861.96,4501.42 "/>
  <path class="fil2" d="M-9181.75 4022.83l24.24 0 0 -48.49 24.25 0 0 24.25 24.25 0 0 48.49 -72.74 0 0 -24.25zm0 0l-24.25 0 0 -24.24 24.25 0 0 24.24zm-48.49 -96.98l24.24 0 0 48.49 -24.24 0 0 -48.49zm48.49 -48.49l72.74 0 0 72.74 -72.74 0 0 -72.74zm-72.74 24.25l0 24.24 -24.24 0 0 -24.24 24.24 0zm145.48 -72.74l0 24.24 -24.25 0 0 -24.24 24.25 0zm-145.48 72.74l0 -24.25 -24.24 0 0 -24.25 -24.25 0 0 24.25 -24.24 0 0 48.49 24.24 0 0 24.25 48.49 0 0 48.49 24.25 0 0 48.49 24.24 0 0 24.24 96.99 0 0 -24.24 48.49 0 0 -24.25 -24.25 0 0 -24.24 48.49 0 0 -24.25 -24.24 0 0 -121.23 -24.25 0 0 -24.24 -24.24 0 0 -24.25 -24.25 0 0 -24.24 24.25 0 0 -24.25 24.24 0 0 -24.24 -72.74 0 0 121.22 -48.49 0 0 48.5 -48.49 0z"/>
  <path class="fil2" d="M-9448.45 3804.62l0 -24.24 24.24 0 0 24.24 -24.24 0zm-72.74 -121.23l0 24.25 -48.49 0 0 24.25 24.25 0 0 24.24 -48.5 0 0 48.49 24.25 0 0 -24.24 72.74 0 0 48.49 -24.25 0 0 24.24 24.25 0 0 24.25 24.24 0 0 -72.74 24.25 0 0 24.25 48.49 0 0 24.24 24.24 0 0 24.25 -24.24 0 0 24.25 48.49 0 0 -24.25 24.25 0 0 -24.25 -24.25 0 0 -24.24 -24.25 0 0 -24.25 -24.24 0 0 -48.49 24.24 0 0 -24.24 24.25 0 0 -24.25 -48.49 0 0 24.25 -24.25 0 0 24.24 -24.24 0 0 -24.24 -48.49 0 0 -24.25 24.24 0 0 -48.49 -24.24 0 0 24.24 -24.25 0z"/>
  <path class="fil2" d="M-9569.68 3489.43l121.23 0 0 121.23 -121.23 0 0 -121.23zm-24.25 145.47l169.72 0 0 -169.72 -169.72 0 0 169.72z"/>
  <path class="fil2" d="M-9133.26 3489.43l121.23 0 0 121.23 -121.23 0 0 -121.23zm-24.25 145.47l169.72 0 0 -169.72 -169.72 0 0 169.72z"/>
  <path class="fil2" d="M-9569.68 3925.85l121.23 0 0 121.23 -121.23 0 0 -121.23zm-24.25 145.47l169.72 0 0 -169.71 -169.72 0 0 169.71z"/>
  <path class="fil2" d="M-9351.47 3683.39l0 -24.24 24.25 0 0 24.24 -24.25 0zm-24.25 -48.49l0 48.49 24.25 0 0 24.25 24.25 0 0 24.25 24.24 0 0 24.24 48.49 0 0 48.49 24.25 0 0 -48.49 48.49 0 0 -24.24 -48.49 0 0 -24.25 -24.25 0 0 24.25 -24.24 0 0 -24.25 -24.25 0 0 -48.49 24.25 0 0 -48.49 -24.25 0 0 24.24 -24.24 0 0 -24.24 -24.25 0 0 24.24 -24.25 0z"/>
  <polygon class="fil2" points="-9060.52,3804.62 -9060.52,3828.87 -9036.28,3828.87 -9036.28,3853.11 -9012.03,3853.11 -9012.03,3828.87 -8987.79,3828.87 -8987.79,3756.13 -9012.03,3756.13 -9012.03,3731.89 -8987.79,3731.89 -8987.79,3683.39 -9012.03,3683.39 -9012.03,3707.64 -9060.52,3707.64 -9060.52,3731.89 -9036.28,3731.89 -9036.28,3780.38 -9012.03,3780.38 -9012.03,3804.62 "/>
  <polygon class="fil2" points="-9351.47,3562.17 -9327.22,3562.17 -9327.22,3513.67 -9302.98,3513.67 -9302.98,3489.43 -9278.73,3489.43 -9278.73,3465.18 -9351.47,3465.18 -9351.47,3489.43 -9399.96,3489.43 -9399.96,3513.67 -9375.72,3513.67 -9375.72,3537.92 -9351.47,3537.92 "/>
  <polygon class="fil2" points="-9254.49,3586.41 -9254.49,3634.9 -9230.24,3634.9 -9230.24,3610.66 -9206,3610.66 -9206,3659.15 -9230.24,3659.15 -9230.24,3683.39 -9181.75,3683.39 -9181.75,3562.17 -9206,3562.17 -9206,3586.41 "/>
  <polygon class="fil2" points="-9109.01,3586.41 -9036.28,3586.41 -9036.28,3513.67 -9109.01,3513.67 "/>
  <polygon class="fil2" points="-9545.43,3586.41 -9472.7,3586.41 -9472.7,3513.67 -9545.43,3513.67 "/>
  <polygon class="fil2" points="-9545.43,4022.83 -9472.7,4022.83 -9472.7,3950.1 -9545.43,3950.1 "/>
  <polygon class="fil2" points="-9302.98,4047.08 -9302.98,4022.83 -9375.72,4022.83 -9375.72,4047.08 -9399.96,4047.08 -9399.96,4071.32 -9327.22,4071.32 -9327.22,4047.08 "/>
  <polygon class="fil2" points="-9012.03,3950.1 -9012.03,3925.85 -8987.79,3925.85 -8987.79,3877.36 -9036.28,3877.36 -9036.28,3950.1 "/>
  <polygon class="fil2" points="-9254.49,3586.41 -9254.49,3537.92 -9278.73,3537.92 -9278.73,3513.67 -9302.98,3513.67 -9302.98,3562.17 -9278.73,3562.17 -9278.73,3586.41 "/>
  <polygon class="fil2" points="-9375.72,3756.13 -9375.72,3780.38 -9351.47,3780.38 -9351.47,3804.62 -9302.98,3804.62 -9302.98,3780.38 -9327.22,3780.38 -9327.22,3756.13 "/>
  <polygon class="fil2" points="-9302.98,3950.1 -9351.47,3950.1 -9351.47,3998.59 -9302.98,3998.59 "/>
  <polygon class="fil2" points="-9012.03,4022.83 -9036.28,4022.83 -9036.28,4071.32 -8987.79,4071.32 -8987.79,4047.08 -9012.03,4047.08 "/>
  <polygon class="fil2" points="-9351.47,3562.17 -9399.96,3562.17 -9399.96,3586.41 -9351.47,3586.41 "/>
  <polygon class="fil2" points="-9060.52,3804.62 -9060.52,3756.13 -9084.77,3756.13 -9084.77,3804.62 "/>
  <polygon class="fil2" points="-9569.68,3707.64 -9569.68,3659.15 -9593.93,3659.15 -9593.93,3707.64 "/>
  <polygon class="fil2" points="-9206,3828.87 -9181.75,3828.87 -9181.75,3780.38 -9206,3780.38 "/>
  <polygon class="fil2" points="-9399.96,3877.36 -9399.96,3853.11 -9448.45,3853.11 -9448.45,3877.36 "/>
  <polygon class="fil2" points="-9181.75,3683.39 -9181.75,3707.64 -9133.26,3707.64 -9133.26,3683.39 "/>
  <polygon class="fil2" points="-9521.19,3853.11 -9569.68,3853.11 -9569.68,3877.36 -9521.19,3877.36 "/>
  <polygon class="fil2" points="-9012.03,3683.39 -9012.03,3659.15 -9036.28,3659.15 -9036.28,3683.39 "/>
  <polygon class="fil2" points="-9278.73,3513.67 -9254.49,3513.67 -9254.49,3489.43 -9278.73,3489.43 "/>
  <polygon class="fil2" points="-9278.73,3707.64 -9254.49,3707.64 -9254.49,3683.39 -9278.73,3683.39 "/>
  <polygon class="fil2" points="-9327.22,3853.11 -9302.98,3853.11 -9302.98,3828.87 -9327.22,3828.87 "/>
  <polygon class="fil2" points="-9012.03,3950.1 -9012.03,3974.34 -8987.79,3974.34 -8987.79,3950.1 "/>
  <polygon class="fil2" points="-9109.01,3683.39 -9084.77,3683.39 -9084.77,3659.15 -9109.01,3659.15 "/>
  <polygon class="fil2" points="-9399.96,3974.34 -9375.72,3974.34 -9375.72,3950.1 -9399.96,3950.1 "/>
  <polygon class="fil2" points="-9569.68,3853.11 -9569.68,3828.87 -9593.93,3828.87 -9593.93,3853.11 "/>
  <polygon class="fil2" points="-9424.21,3707.64 -9399.96,3707.64 -9399.96,3683.39 -9424.21,3683.39 "/>
  <polygon class="fil2" points="-9302.98,4047.08 -9302.98,4071.32 -9278.73,4071.32 -9278.73,4047.08 "/>
  <polygon class="fil2" points="-9375.72,3634.9 -9375.72,3610.66 -9399.96,3610.66 -9399.96,3634.9 "/>
  <polygon class="fil2" points="-9521.19,3683.39 -9521.19,3659.15 -9545.43,3659.15 -9545.43,3683.39 "/>
  <polygon class="fil2" points="-9424.21,3683.39 -9424.21,3659.15 -9448.45,3659.15 -9448.45,3683.39 "/>
  <polygon class="fil2" points="-9254.49,3804.62 -9278.73,3804.62 -9278.73,3828.87 -9254.49,3828.87 "/>
  <polygon class="fil2" points="-9375.72,4022.83 -9375.72,3998.59 -9399.96,3998.59 -9399.96,4022.83 "/>
  <polygon class="fil2" points="-9254.49,3998.59 -9278.73,3998.59 -9278.73,4022.83 -9254.49,4022.83 "/>
  <polygon class="fil2" points="-9012.03,4022.83 -8987.79,4022.83 -8987.79,3998.59 -9012.03,3998.59 "/>
  <polygon class="fil2" points="-9569.68,3828.87 -9545.43,3828.87 -9545.43,3804.62 -9569.68,3804.62 "/>
  <polygon class="fil2" points="-9254.49,3489.43 -9230.24,3489.43 -9230.24,3465.18 -9254.49,3465.18 "/>
  <polygon class="fil2" points="-9230.24,3537.92 -9206,3537.92 -9206,3513.67 -9230.24,3513.67 "/>
  <polygon class="fil2" points="-9448.45,3731.89 -9424.21,3731.89 -9424.21,3707.64 -9448.45,3707.64 "/>
  <polygon class="fil2" points="-9157.51,3925.85 -9133.26,3925.85 -9133.26,3901.61 -9157.51,3901.61 "/>
  <path class="fil1" d="M-9453.36 3128.2l10.95 8.45 -16.92 21.91 -10.95 -8.46 -66.17 -51.33 0 156.4 489.16 0 0 -156.92 -72.03 54.24 -11.06 8.29 -16.59 -22.12 11.06 -8.29 116.38 -87.64 0 240.21 -544.67 0 0 -240.73 110.84 85.99zm282.07 43.24l9.81 9.82 -19.62 19.62 -110.77 -110.76 -110.77 110.76 -19.62 -19.62 130.39 -130.4 120.58 120.58z"/>
  <polygon class="fil1" points="-9171.29,4506.4 -9161.48,4496.58 -9181.1,4476.96 -9291.87,4587.72 -9402.64,4476.96 -9422.26,4496.58 -9291.87,4626.98 "/>
  <polygon class="fil1" points="-9737.9,4131.63 -9737.9,3326.91 -8852.01,3326.91 -8852.01,4131.63 -8879.77,4131.63 -8879.77,3354.67 -9710.14,3354.67 -9710.14,4131.63 "/>
  <polygon class="fil1" points="-8576.88,3371.58 -8576.88,3385.46 -8604.64,3385.46 -8604.64,3352.57 -8637.69,3352.57 -8637.69,3382.98 -8726.26,3382.98 -8726.26,3266.32 -8455.25,3266.32 -8455.25,3346.35 -8546.21,3446.11 -8665.55,3446.11 -8702.52,3413.39 -8684.19,3392.67 -8655.18,3418.35 -8558.4,3418.35 -8483.01,3335.67 -8461.52,3312.42 -8476.71,3294.08 -8698.5,3294.08 -8698.5,3355.22 -8665.45,3355.22 -8665.45,3324.81 -8576.88,3324.81 "/>
  <path class="fil1" d="M-8483.01 3284.7l0 -65.31c0,-7.67 6.21,-13.88 13.88,-13.88l60.81 0c7.66,0 13.88,6.21 13.88,13.88l0 60.81c0,7.66 -6.22,13.88 -13.88,13.88l-32.02 0 103.62 129.53c3.64,4.55 3.92,10.71 1.2,15.48l0.05 0.03 -121.63 212.83c-3.8,6.65 -12.27,8.96 -18.92,5.15 -4.47,-2.55 -6.98,-7.22 -6.98,-12.03l4.28 -7.47 23.47 -44.77 91.05 -159.35 -91.05 -113.82 0 0 -27.76 -34.96zm27.76 -51.43l0 33.05 33.05 0 0 -33.05 -33.05 0z"/>
  <polygon class="fil1" points="-8516.24,3335.57 -8516.24,3342.76 -8544,3342.76 -8544,3309.42 -8516.24,3309.42 "/>
  <path class="fil1" d="M-8459.13 3309.27l9.27 -10.3 20.61 18.54 -230.11 255.61 -20.6 -18.55 220.83 -245.3zm-283.65 349.68l-13.89 0 0 -27.76 102.17 0 0 27.76 -88.28 0z"/>
  <path class="fil1" d="M-8611.91 3484.63l13.07 4.56 -9.11 26.13c-69.87,-24.35 -139.69,-48.84 -209.52,-73.29l0 -87.14 -33.06 0 0 101.02 129.11 101.45 -17.14 21.8 -139.73 -109.8 0 -142.23 88.58 0 0 95.29 177.8 62.21z"/>
  <path class="fil1" d="M-8742.78 3631.19l13.88 0 0 27.76 -88.58 0 0 -60.81 -33.05 0 0 97.8 167 55.67 219.55 -125.46 13.77 24.07c-76.72,43.89 -153.46,87.72 -230.21,131.55l-197.87 -65.95 0 -145.44 88.57 0 0 60.81 46.94 0z"/>
  <path class="fil1" d="M-8478.95 3654.88l-9.81 -9.81 19.63 -19.63 171.65 171.66 -19.62 19.62 -161.85 -161.84zm14.04 215.09l11.6 7.59 -15.18 23.21c-70.33,-46.01 -140.58,-92.18 -210.91,-138.19l15.18 -23.2 199.31 130.59z"/>
  <path class="fil1" d="M-8306.37 3805.83l-8.73 10.73 -21.47 -17.46 55.81 -68.74 -81.57 -82.27c22.15,-35.22 44.26,-70.45 66.43,-105.66l23.43 14.75 -54.72 87.03 83.58 84.29 -62.76 77.33z"/>
  <path class="fil1" d="M-8605.89 3874.98l7.1 -11.87 23.75 14.21 -61.4 103.89 30.2 90.6 -36.82 73.63 -85.85 0 0 33.05 69.71 0c-32.94,1.88 -65.4,3.62 -97.47,5.23l0 -66.04 96.59 0 24 -47.99 -30.61 -91.84 60.8 -102.87zm-51.31 303.4l113.38 -113.38 0 -68.34 27.76 0 0 79.83 -99.45 99.45c-13.98,0.83 -27.88,1.65 -41.69,2.44z"/>
  <path class="fil1" d="M-8483.01 3905.34l0 -27.92 27.76 0 0 93.66 55.28 55.29 71 35.5 -40.43 86.6 -85.85 0 0 27.32 100.31 0 86.8 -131.63 23.1 15.4 -78.93 119.82 0 -2.46c-54.48,4.03 -107.39,7.78 -159.04,11.24l0 -67.45 96.58 0 20.38 -46.48 -50.62 -25.31c-22.13,-22.1 -44.23,-44.23 -66.34,-66.34l0 -77.24zm259.47 91.02l11.55 7.65 -15.29 23.09 -11.55 -7.64 -92.16 -65.64 0 -156.81 27.77 0 0 142.03 79.68 57.32z"/>
  <polygon class="fil1" points="-10012.55,3371.58 -10012.55,3385.46 -9984.79,3385.46 -9984.79,3352.57 -9951.74,3352.57 -9951.74,3382.98 -9863.17,3382.98 -9863.17,3266.32 -10134.18,3266.32 -10134.18,3346.35 -10043.22,3446.11 -9923.88,3446.11 -9886.91,3413.39 -9905.24,3392.67 -9934.25,3418.35 -10031.03,3418.35 -10106.42,3335.67 -10127.91,3312.42 -10112.72,3294.08 -9890.93,3294.08 -9890.93,3355.22 -9923.98,3355.22 -9923.98,3324.81 -10012.55,3324.81 "/>
  <path class="fil1" d="M-10106.42 3284.7l0 -65.31c0,-7.67 -6.21,-13.88 -13.88,-13.88l-60.81 0c-7.67,0 -13.88,6.21 -13.88,13.88l0 60.81c0,7.66 6.21,13.88 13.88,13.88l32.02 0 -103.62 129.53c-3.64,4.55 -3.93,10.71 -1.2,15.48l-0.05 0.03 121.63 212.83c3.8,6.65 12.27,8.96 18.92,5.15 4.47,-2.55 6.98,-7.22 6.98,-12.03l-4.28 -7.47 -23.47 -44.77 -91.05 -159.35 91.05 -113.82 0 0 27.76 -34.96zm-27.76 -51.43l0 33.05 -33.05 0 0 -33.05 33.05 0z"/>
  <polygon class="fil1" points="-10073.19,3335.57 -10073.19,3342.76 -10045.43,3342.76 -10045.43,3309.42 -10073.19,3309.42 "/>
  <path class="fil1" d="M-10130.3 3309.27l-9.27 -10.3 -20.61 18.54 230.11 255.61 20.6 -18.55 -220.83 -245.3zm283.65 349.68l13.89 0 0 -27.76 -102.17 0 0 27.76 88.28 0z"/>
  <path class="fil1" d="M-9977.52 3484.63l-13.07 4.56 9.11 26.13c69.87,-24.35 139.69,-48.84 209.52,-73.29l0 -87.14 33.06 0 0 101.02 -129.11 101.45 17.14 21.8 139.73 -109.8 0 -142.23 -88.58 0 0 95.29 -177.8 62.21z"/>
  <path class="fil1" d="M-9846.65 3631.19l-13.88 0 0 27.76 88.58 0 0 -60.81 33.05 0 0 97.8 -167.01 55.67 -219.54 -125.46 -13.77 24.07c76.71,43.89 153.46,87.72 230.21,131.55l197.87 -65.95 0 -145.44 -88.57 0 0 60.81 -46.94 0z"/>
  <path class="fil1" d="M-10110.48 3654.88l9.81 -9.81 -19.63 -19.63 -171.65 171.66 19.62 19.62 161.85 -161.84zm-14.04 215.09l-11.6 7.59 15.18 23.21c70.33,-46.01 140.57,-92.18 210.91,-138.19l-15.18 -23.2 -199.31 130.59z"/>
  <path class="fil1" d="M-10283.06 3805.83l8.73 10.73 21.47 -17.46 -55.82 -68.74 81.58 -82.27c-22.15,-35.22 -44.27,-70.45 -66.43,-105.66l-23.43 14.75 54.72 87.03 -83.58 84.29 62.76 77.33z"/>
  <path class="fil1" d="M-9983.54 3874.98l-7.1 -11.87 -23.75 14.21 61.4 103.89 -30.2 90.6 36.82 73.63 85.85 0 0 33.05 -69.71 0c32.94,1.88 65.4,3.62 97.47,5.23l0 -66.04 -96.59 0 -24 -47.99 30.61 -91.84 -60.8 -102.87zm51.31 303.4l-113.38 -113.38 0 -68.34 -27.76 0 0 79.83 99.45 99.45c13.98,0.83 27.88,1.65 41.69,2.44z"/>
  <path class="fil1" d="M-10106.42 3905.34l0 -27.92 -27.76 0 0 93.66 -55.28 55.29 -71 35.5 40.43 86.6 85.85 0 0 27.32 -100.31 0 -86.8 -131.63 -23.1 15.4 78.93 119.82 0 -2.46c54.48,4.03 107.39,7.78 159.04,11.24l0 -67.45 -96.58 0 -20.38 -46.48 50.62 -25.31c22.13,-22.1 44.23,-44.23 66.34,-66.34l0 -77.24zm-259.47 91.02l-11.55 7.65 15.29 23.09 11.55 -7.64 92.15 -65.64 0 -156.81 -27.76 0 0 142.03 -79.68 57.32z"/>
  <path class="fil1" d="M-10256.32 4420.52l1935.05 0 0 -220.1 -1935.05 0 0 220.1zm1935.05 29.32l-1964.66 0 0 -278.74 1994.27 0 0 278.74 -29.61 0z"/>
  <path class="fil1" d="M-9646.66 4369.7l92.65 0 0 -21.45 -61.18 0 61.18 -71.19 0 -18.6 -90.74 0 0 21.46 59.27 0 -61.18 71.19 0 18.59zm207.61 0l24.47 0 0 -34.01 12.87 -13.35 34.49 47.36 29.39 0 -47.35 -64.04 45.29 -47.2 -29.56 0 -45.13 48.63 0 -48.63 -24.47 0 0 111.24zm243.83 1.91c24.79,0 40.05,-15.42 40.05,-36.39l0 -0.32c0,-20.66 -14.78,-28.61 -29.88,-31.15l28.13 -26.85 0 -18.44 -75.17 0 0 20.98 43.7 0 -26.53 26.7 3.81 15.57 10.17 0c13.67,0 21.77,5.08 21.77,14.14l0 0.32c0,8.26 -6.51,13.51 -15.73,13.51 -11.28,0 -19.23,-4.77 -26.86,-13.35l-16.84 16.05c9.53,11.28 23.36,19.23 43.38,19.23zm189.49 0c25.58,0 42.27,-14.94 42.27,-38.46l0 -0.32c0,-25.1 -17.32,-35.59 -38.94,-35.59 -6.19,0 -10.17,0.79 -14.62,1.9l1.28 -19.22 47.35 0 0 -21.46 -68.33 0 -3.18 54.83 14.14 9.37c5.25,-2.22 11.61,-4.13 18.6,-4.13 11.6,0 19.7,5.56 19.7,15.1l0 0.32c0,9.85 -7.15,15.41 -18.59,15.41 -9.85,0 -18.12,-4.45 -26.54,-12.08l-14.78 17.64c10.81,10.33 23.84,16.69 41.64,16.69z"/>
  <rect class="fil3 str0" x="-13078.19" y="2307.06" width="7575.87" height="10714.44"/>
  <polyline class="fil3 str1" points="-9424.78,8377.2 -9496.65,8318.41 -9496.65,8490.89 -9284.97,8490.89 "/>
  <polyline class="fil3 str2" points="-9156.91,8377.2 -9085.04,8318.41 -9085.04,8490.89 -9296.73,8490.89 "/>
  <g>
   <path class="fil1" d="M-9356.4 8394.2c-5.78,6.72 -15.94,7.48 -22.67,1.7 -6.73,-5.78 -7.49,-15.94 -1.71,-22.66l24.38 20.96zm75.32 -87.54l-75.32 87.54 -24.38 -20.96 75.32 -87.54 24.38 20.96zm-24.38 -20.96c5.78,-6.72 15.94,-7.48 22.67,-1.7 6.73,5.78 7.49,15.94 1.71,22.66l-24.38 -20.96z"/>
  </g>
  <g>
   <path class="fil1" d="M-9227.89 8394.2l24.38 -20.96c5.78,6.72 5.02,16.88 -1.71,22.66 -6.73,5.78 -16.89,5.02 -22.67,-1.7zm-75.32 -87.54l24.38 -20.96 75.32 87.54 -24.38 20.96 -75.32 -87.54zm24.38 -20.96l-24.38 20.96c-5.78,-6.72 -5.02,-16.88 1.71,-22.66 6.73,-5.78 16.89,-5.02 22.67,1.7z"/>
  </g>
  <g>
   <path class="fil1" d="M-9051.21 8676.96l31.48 -5.54c1.51,8.74 -4.3,17.08 -12.99,18.6 -8.69,1.52 -16.98,-4.32 -18.49,-13.06zm-21.69 -124.92l31.48 -5.54 21.69 124.92 -31.48 5.54 -21.69 -124.92zm31.48 -5.54l-31.48 5.54c-1.51,-8.74 4.3,-17.08 12.99,-18.6 8.69,-1.52 16.98,4.32 18.49,13.06z"/>
  </g>
  <g>
   <path class="fil1" d="M-9533 8676.96c-1.51,8.74 -9.8,14.58 -18.49,13.06 -8.69,-1.52 -14.5,-9.86 -12.99,-18.6l31.48 5.54zm21.7 -124.92l-21.7 124.92 -31.48 -5.54 21.7 -124.92 31.48 5.54zm-31.48 -5.54c1.51,-8.74 9.8,-14.58 18.49,-13.06 8.69,1.52 14.5,9.86 12.99,18.6l-31.48 -5.54z"/>
  </g>
  <polyline class="fil3 str3" points="-9566.58,9573.29 -9673.73,9782.36 -9922,9588.97 -10204.24,9677.83 -10065.73,9330.25 -9699.86,9251.85 -9715.54,9398.2 "/>
  <polyline class="fil3 str4" points="-10114.08,9652.31 -10150.67,9764.69 -9937,9855.06 "/>
  <polyline class="fil3 str5" points="-9473.83,9983.85 -9422.13,10177.36 -9832.99,10441.76 -9959.92,10245.19 -9944.24,10072.71 -9473.83,9983.85 "/>
  <polyline class="fil3 str6" points="-9467.99,9989.03 -9185.74,9931.54 -9257.61,10071.35 -9255,10187.65 -9354.81,10171.63 "/>
  <path class="fil3 str7" d="M-9180.52 9931.54l159.42 27.44 31.36 133.28 -153.64 175.3 -42.36 -74.69 -69.27 -5.77 -2.6 -115.75 0.63 -1.22 76.46 -138.59zm-81.14 255.01l-2.49 -0.21 0 -0.21 2.49 0.42z"/>
  <path class="fil3 str8" d="M-9511.82 11467.11l-374.98 -361.81 7.54 -576.18m8.77 -559.1l0.56 -50.25 429.27 -106.93"/>
  <polyline class="fil3 str9" points="-9033.81,9302.91 -9293.54,9600.63 -9294.05,9600.63 -9548.65,9311.13 "/>
  <polyline class="fil3 str10" points="-9198.89,9262.04 -9293.54,9370.54 -9294.05,9370.54 -9389.46,9262.04 "/>
  <path class="fil3 str11" d="M-9703.8 9251.85l153.05 -60.48m512.52 0l153.04 60.48"/>
  <polyline class="fil3 str12" points="-9013.92,9573.29 -8906.77,9782.36 -8658.5,9588.97 -8376.26,9677.83 -8514.77,9330.25 -8880.64,9251.85 -8864.96,9398.2 "/>
  <g>
   <path class="fil1" d="M-9050.32 9192.38l32.28 0c0,8.89 -7.23,16.11 -16.14,16.11 -8.91,0 -16.14,-7.22 -16.14,-16.11zm0 -82.33l32.28 0 0 82.33 -32.28 0 0 -82.33zm32.28 0l-32.28 0c0,-8.89 7.23,-16.11 16.14,-16.11 8.91,0 16.14,7.22 16.14,16.11z"/>
  </g>
  <g>
   <path class="fil1" d="M-9572.35 9192.38l32.28 0c0,8.89 -7.23,16.11 -16.14,16.11 -8.91,0 -16.14,-7.22 -16.14,-16.11zm0 -82.33l32.28 0 0 82.33 -32.28 0 0 -82.33zm32.28 0l-32.28 0c0,-8.89 7.23,-16.11 16.14,-16.11 8.91,0 16.14,7.22 16.14,16.11z"/>
  </g>
  <polyline class="fil3 str13" points="-8466.42,9652.31 -8429.83,9764.69 -8637.13,9851.88 "/>
  <g>
   <polyline class="fil3 str14" points="-8445.7,10031.91 -8429.91,10245.17 -8592.58,10354.94 "/>
   <path class="fil3 str15" d="M-8455.97 9776.44l67.95 246.96 -162 20.76m0 0l-1.33 0.15"/>
  </g>
  <g>
   <polyline class="fil3 str16" points="-10136.89,10031.91 -10152.69,10245.17 -9990.01,10354.94 "/>
   <path class="fil3 str17" d="M-10126.63 9776.44l-67.94 246.96 162 20.76m0 0l1.33 0.15"/>
  </g>
  <polyline class="fil3 str18" points="-9068.68,11467.11 -8693.7,11105.3 -8710.57,9919.77 -9141.79,9812.35 "/>
  <g>
   <path class="fil1" d="M-9303.23 11959.59l20.64 23.12c-5.9,6.16 -15.32,5.98 -21.01,-0.4 -5.69,-6.38 -5.53,-16.56 0.37,-22.72zm99.91 -104.33l25.18 11.53 -4.54 11.59 -99.91 104.33 -20.64 -23.12 99.91 -104.33zm20.64 23.12l-20.64 -23.12c5.9,-6.16 15.32,-5.98 21.01,0.4 5.69,6.38 5.53,16.56 -0.37,22.72zm-28.01 -1560.95l29.72 -0.06 2.83 1549.42 -29.72 0.06 -2.83 -1549.42zm29.72 -0.06l-29.72 0.06c-0.01,-8.87 6.63,-16.09 14.83,-16.1 8.2,-0.01 14.88,7.17 14.89,16.04z"/>
  </g>
  <g>
   <path class="fil1" d="M-9205.47 9880.38c0.01,7.81 -7.18,14.16 -16.05,14.17 -8.87,0.01 -16.08,-6.32 -16.09,-14.13l32.14 -0.04zm-0.27 -165.26l0.27 165.26 -32.14 0.04 -0.27 -165.26 20.88 -13.53 11.26 13.49zm-32.14 0.04c-0.01,-7.81 7.18,-14.16 16.05,-14.17 8.87,-0.01 16.08,6.32 16.09,14.13l-32.14 0.04zm-48.42 -32.65l69.3 19.12 -9.62 27.02 -69.3 -19.12 9.62 -27.02zm-9.62 27.02c-8.47,-2.33 -13.18,-10.28 -10.53,-17.74 2.65,-7.46 11.68,-11.61 20.15,-9.28l-9.62 27.02z"/>
  </g>
  <g>
   <path class="fil1" d="M-9269.99 11959.59c5.9,6.16 6.06,16.34 0.37,22.72 -5.69,6.38 -15.11,6.56 -21.01,0.4l20.64 -23.12zm-99.91 -104.33l99.91 104.33 -20.64 23.12 -99.91 -104.33 -4.54 -11.59 25.18 -11.53zm-20.64 23.12c-5.9,-6.16 -6.06,-16.34 -0.37,-22.72 5.69,-6.38 15.11,-6.56 21.01,-0.4l-20.64 23.12zm28.01 -1560.95l-2.83 1549.42 -29.72 -0.06 2.83 -1549.42 29.72 0.06zm-29.72 -0.06c0.01,-8.87 6.69,-16.05 14.89,-16.04 8.2,0.01 14.84,7.23 14.83,16.1l-29.72 -0.06z"/>
  </g>
  <g>
   <path class="fil1" d="M-9335.61 9880.42c-0.01,7.81 -7.22,14.14 -16.09,14.13 -8.87,-0.01 -16.06,-6.36 -16.05,-14.17l32.14 0.04zm0.27 -165.26l-0.27 165.26 -32.14 -0.04 0.27 -165.26 11.26 -13.49 20.88 13.53zm-32.14 -0.04c0.01,-7.81 7.22,-14.14 16.09,-14.13 8.87,0.01 16.06,6.36 16.05,14.17l-32.14 -0.04zm90.18 -5.59l-69.3 19.12 -9.62 -27.02 69.3 -19.12 9.62 27.02zm-9.62 -27.02c8.47,-2.33 17.5,1.82 20.15,9.28 2.65,7.46 -2.06,15.41 -10.53,17.74l-9.62 -27.02z"/>
  </g>
  <g>
   <path class="fil1" d="M-9281.11 8715.62l-32.3 0c0,-8.95 7.24,-16.22 16.15,-16.22 8.91,0 16.15,7.27 16.15,16.22zm0 393.14l-32.3 0 0 -393.14 32.3 0 0 393.14zm-32.3 0l32.3 0c0,8.95 -7.24,16.22 -16.15,16.22 -8.91,0 -16.15,-7.27 -16.15,-16.22zm8.42 63.72l15.46 28.48c-7.83,4.28 -17.65,1.38 -21.91,-6.48 -4.26,-7.86 -1.38,-17.72 6.45,-22zm298.67 -163.51l23.88 14.24 -8.42 14.24 -298.67 163.51 -15.46 -28.48 298.67 -163.51zm15.46 28.48l-15.46 -28.48c7.83,-4.28 17.65,-1.38 21.91,6.48 4.26,7.86 1.38,17.72 -6.45,22zm-23.88 -307.52l20.05 -15.74 12.25 15.74 0 293.28 -32.3 0 0 -293.28zm32.3 0l-32.3 0c0,-8.95 7.24,-16.22 16.15,-16.22 8.91,0 16.15,7.27 16.15,16.22zm-318.72 -59.03l7.8 -31.48 298.67 74.77 -7.8 31.48 -298.67 -74.77zm7.8 -31.48l-7.8 31.48c-8.65,-2.16 -13.92,-10.97 -11.77,-19.66 2.15,-8.69 10.92,-13.98 19.57,-11.82z"/>
  </g>
  <g>
   <path class="fil1" d="M-9077.23 8804.24l-32.14 0c0,-8.87 7.2,-16.07 16.07,-16.07 8.87,0 16.07,7.2 16.07,16.07zm0 172.25l-32.14 0 0 -172.25 32.14 0 0 172.25zm-32.14 0l32.14 0c0,8.87 -7.2,16.07 -16.07,16.07 -8.87,0 -16.07,-7.2 -16.07,-16.07z"/>
  </g>
  <g>
   <path class="fil1" d="M-9516.62 8804.24c0,-8.87 7.2,-16.07 16.07,-16.07 8.87,0 16.07,7.2 16.07,16.07l-32.14 0zm0 172.25l0 -172.25 32.14 0 0 172.25 -32.14 0zm32.14 0c0,8.87 -7.2,16.07 -16.07,16.07 -8.87,0 -16.07,-7.2 -16.07,-16.07l32.14 0z"/>
  </g>
  <g>
   <path class="fil1" d="M-9171.09 8791.78l-32.14 0c0,-8.87 7.2,-16.07 16.07,-16.07 8.87,0 16.07,7.2 16.07,16.07zm0 211.96l-32.14 0 0 -211.96 32.14 0 0 211.96zm-32.14 0l32.14 0c0,8.87 -7.2,16.07 -16.07,16.07 -8.87,0 -16.07,-7.2 -16.07,-16.07z"/>
  </g>
  <g>
   <path class="fil1" d="M-9422.77 8791.78c0,-8.87 7.2,-16.07 16.07,-16.07 8.87,0 16.07,7.2 16.07,16.07l-32.14 0zm0 211.96l0 -211.96 32.14 0 0 211.96 -32.14 0zm32.14 0c0,8.87 -7.2,16.07 -16.07,16.07 -8.87,0 -16.07,-7.2 -16.07,-16.07l32.14 0z"/>
  </g>
  <g>
   <path class="fil1" d="M-9449.9 10303.86c6.4,0 11.59,7.22 11.59,16.12 0,8.9 -5.19,16.12 -11.59,16.12l0 -32.24zm-73.64 0l73.64 0 0 32.24 -73.64 0 0 -32.24zm0 32.24c-6.4,0 -11.59,-7.22 -11.59,-16.12 0,-8.9 5.19,-16.12 11.59,-16.12l0 32.24z"/>
  </g>
  <g>
   <path class="fil1" d="M-8889.11 10303.91c8.2,0 14.85,7.2 14.85,16.07 0,8.87 -6.65,16.07 -14.85,16.07l0 -32.14zm-231.47 0l231.47 0 0 32.14 -231.47 0 0 -32.14zm0 32.14c-8.2,0 -14.85,-7.2 -14.85,-16.07 0,-8.87 6.65,-16.07 14.85,-16.07l0 32.14z"/>
  </g>
  <g>
   <path class="fil1" d="M-9286.73 9172.48c7.83,4.28 10.71,14.14 6.45,22 -4.26,7.86 -14.08,10.76 -21.91,6.48l15.46 -28.48zm-298.67 -163.51l298.67 163.51 -15.46 28.48 -298.67 -163.51 -8.42 -14.24 23.88 -14.24zm-15.46 28.48c-7.83,-4.28 -10.71,-14.14 -6.45,-22 4.26,-7.86 14.08,-10.76 21.91,-6.48l-15.46 28.48zm23.88 -307.52l0 293.28 -32.3 0 0 -293.28 12.25 -15.74 20.05 15.74zm-32.3 0c0,-8.95 7.24,-16.22 16.15,-16.22 8.91,0 16.15,7.27 16.15,16.22l-32.3 0zm318.72 -59.03l-298.67 74.77 -7.8 -31.48 298.67 -74.77 7.8 31.48zm-7.8 -31.48c8.65,-2.16 17.42,3.13 19.57,11.82 2.15,8.69 -3.12,17.5 -11.77,19.66l-7.8 -31.48z"/>
  </g>
  <g>
   <polygon class="fil0" points="14942.12,3715.84 15455.9,3587.22 15455.9,3586 15458.33,3586.61 15460.76,3586 15460.76,3587.22 15974.54,3715.84 15974.54,4225.11 15460.76,4506.39 15460.76,4509.04 15458.33,4507.71 15455.9,4509.04 15455.9,4506.39 14942.12,4225.11 "/>
   <path class="fil0" d="M15329.82 6471.89l271.06 0 0.03 0 3.77 2491.13 0 199.18 -140.24 151.06 -134.62 -143.99 0 -2697.38zm274.86 2690.31l-140.24 151.06 1.9 2.43 138.34 -146.42 0 -7.07zm-3.77 -2690.31l3.77 0 0 2491.13 -3.77 -2491.13z"/>
   <polyline class="fil3 str19" points="15119.06,3013.71 14994.26,2911.61 14994.26,3211.12 15361.85,3211.12 "/>
   <polyline class="fil3 str20" points="15584.21,3013.71 15709.01,2911.61 15709.01,3211.12 15341.42,3211.12 "/>
   <g>
    <path class="fil1" d="M15237.79 3043.22c-10.05,11.68 -27.68,13 -39.36,2.96 -11.68,-10.04 -13.01,-27.66 -2.96,-39.34l42.32 36.38zm130.8 -152.03l-130.8 152.03 -42.32 -36.38 130.8 -152.03 42.32 36.38zm-42.32 -36.38c10.05,-11.68 27.68,-13 39.36,-2.96 11.68,10.04 13.01,27.66 2.96,39.34l-42.32 -36.38z"/>
   </g>
   <g>
    <path class="fil1" d="M15460.98 3043.22l42.32 -36.38c10.05,11.68 8.72,29.3 -2.96,39.34 -11.68,10.04 -29.31,8.72 -39.36,-2.96zm-130.8 -152.03l42.32 -36.38 130.8 152.03 -42.32 36.38 -130.8 -152.03zm42.32 -36.38l-42.32 36.38c-10.05,-11.68 -8.72,-29.3 2.96,-39.34 11.68,-10.04 29.31,-8.72 39.36,2.96z"/>
   </g>
   <g>
    <path class="fil1" d="M15767.76 3534.23l54.68 -9.6c2.63,15.18 -7.48,29.65 -22.57,32.3 -15.09,2.65 -29.48,-7.52 -32.11,-22.7zm-37.67 -216.93l54.68 -9.6 37.67 216.93 -54.68 9.6 -37.67 -216.93zm54.68 -9.6l-54.68 9.6c-2.63,-15.18 7.48,-29.65 22.57,-32.3 15.09,-2.65 29.48,7.52 32.11,22.7z"/>
   </g>
   <g>
    <path class="fil1" d="M14931.15 3534.23c-2.63,15.18 -17.02,25.35 -32.11,22.7 -15.09,-2.65 -25.2,-17.12 -22.57,-32.3l54.68 9.6zm37.67 -216.93l-37.67 216.93 -54.68 -9.6 37.67 -216.93 54.68 9.6zm-54.68 -9.6c2.63,-15.18 17.02,-25.35 32.11,-22.7 15.09,2.65 25.2,17.12 22.57,32.3l-54.68 -9.6z"/>
   </g>
   <polyline class="fil3 str21" points="14872.83,5090.72 14686.77,5453.76 14255.65,5117.95 13765.53,5272.24 14006.05,4668.67 14641.38,4532.53 14614.16,4786.66 "/>
   <polyline class="fil3 str22" points="13922.1,5227.93 13858.56,5423.07 14229.59,5580.01 "/>
   <polyline class="fil3 str23" points="15033.89,5803.66 15123.66,6139.67 14410.2,6598.81 14189.8,6257.46 14217.03,5957.95 15033.89,5803.66 "/>
   <polyline class="fil3 str24" points="15044.04,5812.64 15534.15,5712.81 15409.36,5955.59 15413.89,6157.54 15240.57,6129.72 "/>
   <path class="fil3 str25" d="M15543.22 5712.81l276.83 47.64 54.46 231.45 -266.8 304.41 -73.56 -129.7 -120.28 -10.02 -4.52 -201 1.1 -2.12 132.77 -240.66zm-140.89 442.82l-4.33 -0.37 0 -0.35 4.33 0.72z"/>
   <path class="fil3 str26" d="M14967.91 8379.34l-651.14 -628.3 13.08 -1000.53m15.24 -970.87l0.98 -87.26 745.41 -185.69"/>
   <polyline class="fil3 str27" points="15797.98,4621.2 15346.96,5138.19 15346.08,5138.19 14903.97,4635.46 "/>
   <polyline class="fil3 str28" points="15511.33,4550.23 15346.96,4738.64 15346.08,4738.64 15180.4,4550.23 "/>
   <path class="fil3 str29" d="M14634.54 4532.53l265.77 -105.02m889.99 0l265.77 105.02"/>
   <polyline class="fil3 str30" points="15832.52,5090.72 16018.58,5453.76 16449.7,5117.95 16939.82,5272.24 16699.3,4668.67 16063.97,4532.53 16091.19,4786.66 "/>
   <g>
    <path class="fil1" d="M15769.31 4429.26l56.04 0c0,15.44 -12.55,27.97 -28.02,27.97 -15.47,0 -28.02,-12.53 -28.02,-27.97zm0 -142.97l56.04 0 0 142.97 -56.04 0 0 -142.97zm56.04 0l-56.04 0c0,-15.44 12.55,-27.97 28.02,-27.97 15.47,0 28.02,12.53 28.02,27.97z"/>
   </g>
   <g>
    <path class="fil1" d="M14862.81 4429.26l56.04 0c0,15.44 -12.55,27.97 -28.02,27.97 -15.47,0 -28.02,-12.53 -28.02,-27.97zm0 -142.97l56.04 0 0 142.97 -56.04 0 0 -142.97zm56.04 0l-56.04 0c0,-15.44 12.55,-27.97 28.02,-27.97 15.47,0 28.02,12.53 28.02,27.97z"/>
   </g>
   <polyline class="fil3 str31" points="16783.25,5227.93 16846.79,5423.07 16486.81,5574.48 "/>
   <g>
    <polyline class="fil3 str32" points="16819.23,5887.11 16846.66,6257.42 16564.17,6448.04 "/>
    <path class="fil3 str33" d="M16801.41 5443.48l117.99 428.85 -281.32 36.04m0 0l-2.31 0.26"/>
   </g>
   <g>
    <polyline class="fil3 str34" points="13882.49,5887.11 13855.06,6257.42 14137.55,6448.04 "/>
    <path class="fil3 str35" d="M13900.31 5443.48l-117.99 428.85 281.32 36.04m0 0l2.3 0.26"/>
   </g>
   <polyline class="fil3 str36" points="15737.44,8379.34 16388.58,7751.04 16359.28,5692.38 15610.47,5505.84 "/>
   <g>
    <path class="fil1" d="M15330.14 9234.5l35.84 40.16c-10.25,10.7 -26.59,10.38 -36.48,-0.7 -9.89,-11.08 -9.61,-28.76 0.64,-39.46zm173.49 -181.17l43.72 20.02 -7.88 20.14 -173.49 181.17 -35.84 -40.16 173.49 -181.17zm35.84 40.16l-35.84 -40.16c10.25,-10.7 26.59,-10.38 36.48,0.7 9.89,11.08 9.61,28.76 -0.64,39.46zm-48.63 -2710.57l51.6 -0.12 4.91 2690.55 -51.6 0.12 -4.91 -2690.55zm51.6 -0.12l-51.6 0.12c-0.02,-15.41 11.51,-27.94 25.75,-27.97 14.24,-0.03 25.83,12.44 25.85,27.85z"/>
   </g>
   <g>
    <path class="fil1" d="M15499.91 5623.96c0.02,13.57 -12.46,24.6 -27.87,24.62 -15.41,0.02 -27.93,-10.97 -27.95,-24.54l55.82 -0.08zm-0.48 -286.96l0.48 286.96 -55.82 0.08 -0.48 -286.96 36.26 -23.49 19.56 23.41zm-55.82 0.08c-0.02,-13.57 12.46,-24.6 27.87,-24.62 15.41,-0.02 27.93,10.97 27.95,24.54l-55.82 0.08zm-84.07 -56.7l120.33 33.21 -16.7 46.9 -120.33 -33.21 16.7 -46.9zm-16.7 46.9c-14.7,-4.05 -22.89,-17.85 -18.28,-30.8 4.61,-12.95 20.28,-20.15 34.98,-16.1l-16.7 46.9z"/>
   </g>
   <g>
    <path class="fil1" d="M15387.86 9234.5c10.25,10.7 10.53,28.38 0.64,39.46 -9.89,11.08 -26.23,11.4 -36.48,0.7l35.84 -40.16zm-173.5 -181.17l173.5 181.17 -35.84 40.16 -173.5 -181.17 -7.88 -20.14 43.72 -20.02zm-35.84 40.16c-10.25,-10.7 -10.53,-28.38 -0.64,-39.46 9.89,-11.08 26.23,-11.4 36.48,-0.7l-35.84 40.16zm48.64 -2710.57l-4.92 2690.55 -51.6 -0.12 4.92 -2690.55 51.6 0.12zm-51.6 -0.12c0.02,-15.41 11.61,-27.88 25.85,-27.85 14.24,0.03 25.77,12.56 25.75,27.97l-51.6 -0.12z"/>
   </g>
   <g>
    <path class="fil1" d="M15273.91 5624.04c-0.02,13.57 -12.54,24.56 -27.95,24.54 -15.41,-0.02 -27.89,-11.05 -27.87,-24.62l55.82 0.08zm0.47 -286.96l-0.47 286.96 -55.82 -0.08 0.47 -286.96 19.56 -23.41 36.26 23.49zm-55.82 -0.08c0.02,-13.57 12.54,-24.56 27.95,-24.54 15.41,0.02 27.89,11.05 27.87,24.62l-55.82 -0.08zm156.6 -9.72l-120.34 33.21 -16.7 -46.9 120.34 -33.21 16.7 46.9zm-16.7 -46.9c14.7,-4.05 30.37,3.15 34.98,16.1 4.61,12.95 -3.58,26.75 -18.28,30.8l-16.7 -46.9z"/>
   </g>
   <g>
    <path class="fil1" d="M15368.54 3601.36l-56.08 0c0,-15.55 12.56,-28.16 28.04,-28.16 15.48,0 28.04,12.61 28.04,28.16zm0 682.7l-56.08 0 0 -682.7 56.08 0 0 682.7zm-56.08 0l56.08 0c0,15.55 -12.56,28.16 -28.04,28.16 -15.48,0 -28.04,-12.61 -28.04,-28.16zm14.62 110.64l26.84 49.46c-13.59,7.44 -30.63,2.4 -38.04,-11.25 -7.41,-13.65 -2.39,-30.77 11.2,-38.21zm518.63 -283.93l41.46 24.73 -14.62 24.73 -518.63 283.93 -26.84 -49.46 518.63 -283.93zm26.84 49.46l-26.84 -49.46c13.59,-7.44 30.63,-2.4 38.04,11.25 7.41,13.65 2.39,30.77 -11.2,38.21zm-41.46 -534l34.82 -27.33 21.26 27.33 0 509.27 -56.08 0 0 -509.27zm56.08 0l-56.08 0c0,-15.55 12.56,-28.16 28.04,-28.16 15.48,0 28.04,12.61 28.04,28.16zm-553.45 -102.51l13.56 -54.66 518.63 129.84 -13.56 54.66 -518.63 -129.84zm13.56 -54.66l-13.56 54.66c-15.02,-3.76 -24.17,-19.05 -20.43,-34.14 3.74,-15.09 18.97,-24.28 33.99,-20.52z"/>
   </g>
   <g>
    <path class="fil1" d="M15722.58 3755.25l-55.8 0c0,-15.41 12.5,-27.91 27.9,-27.91 15.4,0 27.9,12.5 27.9,27.91zm0 299.12l-55.8 0 0 -299.12 55.8 0 0 299.12zm-55.8 0l55.8 0c0,15.41 -12.5,27.91 -27.9,27.91 -15.4,0 -27.9,-12.5 -27.9,-27.91z"/>
   </g>
   <g>
    <path class="fil1" d="M14959.58 3755.25c0,-15.41 12.5,-27.91 27.9,-27.91 15.4,0 27.9,12.5 27.9,27.91l-55.8 0zm0 299.12l0 -299.12 55.8 0 0 299.12 -55.8 0zm55.8 0c0,15.41 -12.5,27.91 -27.9,27.91 -15.4,0 -27.9,-12.5 -27.9,-27.91l55.8 0z"/>
   </g>
   <g>
    <path class="fil1" d="M15559.6 3733.62l-55.8 0c0,-15.41 12.5,-27.91 27.9,-27.91 15.4,0 27.9,12.5 27.9,27.91zm0 368.07l-55.8 0 0 -368.07 55.8 0 0 368.07zm-55.8 0l55.8 0c0,15.41 -12.5,27.91 -27.9,27.91 -15.4,0 -27.9,-12.5 -27.9,-27.91z"/>
   </g>
   <g>
    <path class="fil1" d="M15122.56 3733.62c0,-15.41 12.5,-27.91 27.9,-27.91 15.4,0 27.9,12.5 27.9,27.91l-55.8 0zm0 368.07l0 -368.07 55.8 0 0 368.07 -55.8 0zm55.8 0c0,15.41 -12.5,27.91 -27.9,27.91 -15.4,0 -27.9,-12.5 -27.9,-27.91l55.8 0z"/>
   </g>
   <g>
    <path class="fil1" d="M15075.44 6359.34c11.11,0 20.13,12.54 20.13,28 0,15.46 -9.02,28 -20.13,28l0 -56zm-127.88 0l127.88 0 0 56 -127.88 0 0 -56zm0 56c-11.11,0 -20.13,-12.54 -20.13,-28 0,-15.46 9.02,-28 20.13,-28l0 56z"/>
   </g>
   <g>
    <path class="fil1" d="M16049.25 6359.43c14.23,0 25.78,12.5 25.78,27.91 0,15.41 -11.55,27.91 -25.78,27.91l0 -55.82zm-401.94 0l401.94 0 0 55.82 -401.94 0 0 -55.82zm0 55.82c-14.23,0 -25.78,-12.5 -25.78,-27.91 0,-15.41 11.55,-27.91 25.78,-27.91l0 55.82z"/>
   </g>
   <g>
    <path class="fil1" d="M15358.78 4394.7c13.59,7.44 18.61,24.56 11.2,38.21 -7.41,13.65 -24.45,18.69 -38.04,11.25l26.84 -49.46zm-518.64 -283.93l518.64 283.93 -26.84 49.46 -518.64 -283.93 -14.62 -24.73 41.46 -24.73zm-26.84 49.46c-13.59,-7.44 -18.61,-24.56 -11.2,-38.21 7.41,-13.65 24.45,-18.69 38.04,-11.25l-26.84 49.46zm41.46 -534l0 509.27 -56.08 0 0 -509.27 21.26 -27.33 34.82 27.33zm-56.08 0c0,-15.55 12.56,-28.16 28.04,-28.16 15.48,0 28.04,12.61 28.04,28.16l-56.08 0zm553.46 -102.51l-518.64 129.84 -13.56 -54.66 518.64 -129.84 13.56 54.66zm-13.56 -54.66c15.02,-3.76 30.25,5.43 33.99,20.52 3.74,15.09 -5.41,30.38 -20.43,34.14l-13.56 -54.66z"/>
   </g>
  </g>
 </g>
</svg>
