<svg width="100" height="24" fill="none" xmlns="http://www.w3.org/2000/svg"><g clip-path="url(#clip0)" fill-rule="evenodd" clip-rule="evenodd"><path d="M53.764 5.812c.24.241 2.405 5.996 2.631 6.707.226.76.544 1.491.948 2.174.75.17.821-.583 1.047-1.18 1.231-3.225 3.099-7.929 4.033-11.097.65-1.535.707-1.947-.467-1.947-1.175 0-1.047.767-1.514 1.762-.41 1.89-1.995 5.883-2.575 7.716 0 .241 0 .241-.297.241-.976-2.728-2.108-6.067-3.212-8.767-.297-.526-.82-.64-1.174.54-.594 1.876-1.415 4.106-2.052 5.925 0 0-.764 2.302-.82 2.416a7.124 7.124 0 0 1-.877-2.117c-.878-2.174-1.642-4.519-2.392-6.693-.183-.412-.183-.654-.594-.895a2.438 2.438 0 0 0-1.287-.114c-1.16.185-.41 1.123-.17 1.819 1.415 3.822 2.985 8.412 4.556 12.05a.555.555 0 0 0 .437.339.55.55 0 0 0 .51-.212c.227-.44 3.1-8.667 3.269-8.667zM.226.71c-.058.237-.039.486.057.71.24.996-.467 12.335-.283 12.79a2.819 2.819 0 0 0 1.825.17c.283-.298.17-.583.17-1.052 0-2.003.17-3.936.17-5.996.07-.767.127-1.293.127-1.762 0-.469 0-.412.113-.526.113-.113 1.966 3.126 2.15 3.482.354.696 1.047 1.762 1.514 2.586.708 1.293 1.061.412 1.231.114.41-.526 3.58-6.11 3.806-6.224.212.227.212 5.811.212 6.224 0 3.054-.353 3.353 1.57 3.225.595 0 .652-.469.595-.995v-3.111c-.156-2.53-.269-5.414-.269-7.93 0-.298.113-1.42.113-1.591a1.145 1.145 0 0 0-1.415-.242c-.41.242-.523.768-.82 1.123-1.189 2.117-2.787 4.519-3.905 6.522-.41.71-.41.47-.764 0-.764-1.122-1.754-3.055-2.448-4.177L2.56 1.705A4.861 4.861 0 0 0 1.81.582C1.415.298.637.526.227.71zM74.886 7.29a3.911 3.911 0 0 1 3.636-.71c1.868.823 2.109 3.594 1.288 4.944a3.03 3.03 0 0 1-3.282 1.265 4.236 4.236 0 0 1-1.642-.71v-4.79zm0-2.004a40.831 40.831 0 0 1 0-4.647c0-.639-.226-.753-.82-.525-1.415.597-1.415.355-1.217 1.648.113.654 0 8.227 0 9.293 0 2.103-.297 2.586 2.745 3.467a6.538 6.538 0 0 0 5.05-1.009c2.986-2.458 2.165-9.392-3.282-8.866-.474.025-.947.082-1.414.17-.184.057-.878.469-.963.469h-.099zM33.63 14.337a5.51 5.51 0 0 0 .184-2.287 16.818 16.818 0 0 1 0-2.416c.17 0 .354.298.708.654.353.355 3.268 3.41 3.735 3.751a1.413 1.413 0 0 0 1.23.355c.411 0 1.062 0 1.288-.284 0-.412-.82-1.066-1.174-1.42-.354-.356-.806-.81-1.217-1.294a24.996 24.996 0 0 1-2.518-2.572c0-.128 3.212-2.842 3.806-3.353.226-.242.467-.299.41-.654a3.776 3.776 0 0 0-2.235 0c-.283.128-2.222 1.89-2.745 2.359-.17.17-1.174 1.236-1.288 1.18-.17-.54 0-7.887-.113-8.3-.113-.411-2.108.242-2.051.953.11.499.168 1.009.17 1.52v10.16c0 .355-.114 1.421.127 1.591.55.142 1.125.161 1.683.057zM18.392 9.52c.651-.17 2.83.356 2.929.938.056.629.056 1.261 0 1.89-.41.526-3.226 1.577-4.16-.298a1.996 1.996 0 0 1 0-1.706 1.815 1.815 0 0 1 1.231-.824zm2.986-.71a5.109 5.109 0 0 0-1.811-.753 6.678 6.678 0 0 0-2.406.17c-.66.19-1.243.588-1.662 1.136a3.235 3.235 0 0 0-.07 3.835c.398.563.966.982 1.62 1.196a5.327 5.327 0 0 0 3.451 0c.24-.113.708-.412.878-.469.17-.057.24.412.466.526.227.114 1.288 0 1.585-.284.297-.284.354-.242.17-.654a2.953 2.953 0 0 1-.283-1.762V7.517a2.495 2.495 0 0 0-.41-1.705c-1.118-2.231-7.853-1.35-7.315.54.537 1.89 1.415-.654 4.386-.299 1.599.17 1.429 1.705 1.429 2.757h-.028zM90.633 8.526h-4.852c.064-.584.33-1.126.75-1.535a2.824 2.824 0 0 1 1.64-.696 2.353 2.353 0 0 1 1.755.582 1.96 1.96 0 0 1 .707 1.649zm-4.98 1.52c.354-.17 5.66 0 6.621 0 .963 0 .524-3.169-1.23-4.462a4.727 4.727 0 0 0-6.935 1.43 4.776 4.776 0 0 0-.635 2.563 4.848 4.848 0 0 0 .585 2.502 4.822 4.822 0 0 0 1.778 1.846c1.57 1.066 5.787 1.01 6.31-.64.651-2.116-.877-.937-1.415-.71a5.062 5.062 0 0 1-1.415.356c-3.126.355-3.89-2.416-3.664-2.885zM64.417 8.526c.05-.607.325-1.173.77-1.587a2.414 2.414 0 0 1 1.636-.644c1.216-.128 2.631.938 2.39 2.23h-4.796zm-.24 1.42h6.565c.764 0 .636-.468.58-1.05a4.576 4.576 0 0 0-.71-2.22 4.55 4.55 0 0 0-1.71-1.577 4.526 4.526 0 0 0-4.485.144 4.78 4.78 0 0 0-1.783 1.873 4.807 4.807 0 0 0-.551 2.532c-.06.868.134 1.734.56 2.492a4.436 4.436 0 0 0 1.831 1.771c1.995 1.236 5.914.71 6.268-.696 0-.412.283-1.421-.354-1.18-.77.437-1.606.74-2.476.896a3.521 3.521 0 0 1-2.632-.71c-.509-.413-1.33-1.65-1.103-2.274zM95.954 14.394c.354-.355.297-.526.297-1.051v-1.421c0-1.876-.354-4.988 1.81-5.457.468-.113.581.285 1.175.17.35-.315.614-.716.764-1.164 0-.896-1.415-1.066-2.702-.483-.41.184-.75.824-1.047.88 0-.525.113-.753-.24-1.222a3.188 3.188 0 0 0-1.288.413c-.58.284-.693.284-.58.994.113.71 0 5.585 0 6.75.056 1.776.056 1.72 1.81 1.591zM26.966 14.337v-.113c.164-1.444.207-2.898.127-4.348 0-1.123.283-2.942 1.514-3.297.99-.355 1.047.583 1.698 0 1.514-1.592-.524-2.231-1.755-1.705-1.23.526-1.06.938-1.414 1.051a2.856 2.856 0 0 1 0-.696c0-.298-.128-.298-.24-.469a2.44 2.44 0 0 0-1.288.355c-.58.228-.764.285-.58.995.124 1.09.162 2.187.113 3.282v3.24c.127 1.762-.113 1.89 1.825 1.705z" fill="#221F20"/><path d="M53.352 16.227c-2.335.29-4.632.838-6.847 1.634-.694.299-1.415.47-2.108.768-1.415.525-2.745.994-4.146 1.534-.467.17-3.806 1.165-4.386 1.293-2.83.697-7.074 1.52-9.776.285-1.288-.64-1.415 1.35 1.514 2.06 1.712.301 3.47.224 5.15-.227 1.414-.299 3.112-.825 4.456-1.237a217.66 217.66 0 0 1 4.386-1.293c.354-.128.637-.241 1.047-.355l2.165-.654c.41-.113.707-.284 1.061-.412l2.235-.525c.41-.114.708-.228 1.061-.356a42.277 42.277 0 0 1 9.013-.938c.75 0 1.868.185 2.632.299 1.414.17 1.103-.583.17-1.066a14.824 14.824 0 0 0-7.627-.81z" fill="#F9CC46"/></g><defs><clipPath id="clip0"><path fill="#fff" d="M0 0h100v24H0z"/></clipPath></defs></svg>
